<?xml version="1.0" encoding="UTF-8" standalone="no"?>
<svg
   xmlns:dc="http://purl.org/dc/elements/1.1/"
   xmlns:cc="http://creativecommons.org/ns#"
   xmlns:rdf="http://www.w3.org/1999/02/22-rdf-syntax-ns#"
   xmlns:svg="http://www.w3.org/2000/svg"
   xmlns="http://www.w3.org/2000/svg"
   xmlns:sodipodi="http://sodipodi.sourceforge.net/DTD/sodipodi-0.dtd"
   xmlns:inkscape="http://www.inkscape.org/namespaces/inkscape"
   version="1.1"
   x="0px"
   y="0px"
   viewBox="0 0 125.663 155.314"
   xml:space="preserve"
   id="svg2"
   inkscape:version="0.91 r13725"
   sodipodi:docname="error.svg"
   width="125.663"
   height="155.314"><metadata
     id="metadata804"><rdf:RDF><cc:Work
         rdf:about=""><dc:format>image/svg+xml</dc:format><dc:type
           rdf:resource="http://purl.org/dc/dcmitype/StillImage" /><dc:title></dc:title></cc:Work></rdf:RDF></metadata><defs
     id="defs802" /><sodipodi:namedview
     pagecolor="#ffffff"
     bordercolor="#666666"
     borderopacity="1"
     objecttolerance="10"
     gridtolerance="10"
     guidetolerance="10"
     inkscape:pageopacity="0"
     inkscape:pageshadow="2"
     inkscape:window-width="1920"
     inkscape:window-height="1056"
     id="namedview800"
     showgrid="false"
     fit-margin-top="0"
     fit-margin-left="0"
     fit-margin-right="0"
     fit-margin-bottom="0"
     inkscape:zoom="2.1724685"
     inkscape:cx="-106.27946"
     inkscape:cy="-156.31325"
     inkscape:window-x="0"
     inkscape:window-y="24"
     inkscape:window-maximized="1"
     inkscape:current-layer="svg2" /><g
     style="display:none"
     display="none"
     id="g4"
     transform="translate(-147.642,-96.155)"><g
       style="display:inline"
       display="inline"
       id="g6"><path
         d="m 258.246,250.049 -5.586,-0.414 c -20.36,-1.52 -34.182,-14.916 -42.395,-26.398 l -41.703,0 c -11.535,0 -20.921,-9.385 -20.921,-20.92 l 0,-83.821 c 0,-11.536 9.386,-20.922 20.921,-20.922 l 83.82,0 c 11.535,0 20.921,9.386 20.921,20.922 l 0,83.821 c 0,11.535 -9.386,20.92 -20.921,20.92 l -5.837,0 c 2.366,11.807 8.658,21.955 8.727,22.064 l 2.974,4.748 z M 168.563,103.244 c -8.409,0 -15.251,6.842 -15.251,15.252 l 0,83.821 c 0,8.41 6.842,15.252 15.251,15.252 l 44.664,0 0.845,1.225 c 6.661,9.656 17.688,21.223 33.602,24.443 -2.553,-5.09 -6.096,-13.436 -7.282,-22.465 l -0.421,-3.203 12.413,0 c 8.409,0 15.251,-6.842 15.251,-15.252 l 0,-83.821 c 0,-8.41 -6.842,-15.252 -15.251,-15.252 l -83.821,0 z"
         id="path8"
         inkscape:connector-curvature="0" /></g></g><g
     style="display:none"
     display="none"
     id="g10"
     transform="translate(-147.642,-96.155)"><g
       style="display:inline"
       display="inline"
       id="g12"><path
         d="m 252.383,97.574 -83.82,0 c -11.535,0 -20.921,9.386 -20.921,20.922 l 0,83.821 c 0,11.535 9.386,20.92 20.921,20.92 l 41.703,0 c 8.213,11.482 22.034,24.879 42.395,26.398 l 5.586,0.414 -2.974,-4.748 c -0.068,-0.109 -6.36,-10.258 -8.727,-22.064 l 5.837,0 c 11.535,0 20.921,-9.385 20.921,-20.92 l 0,-83.821 c 0,-11.537 -9.386,-20.922 -20.921,-20.922 z m 15.251,104.742 c 0,8.41 -6.842,15.252 -15.251,15.252 l -12.413,0 0.421,3.203 c 1.187,9.029 4.729,17.375 7.282,22.465 -15.914,-3.221 -26.94,-14.787 -33.602,-24.443 l -0.845,-1.225 -44.664,0 c -8.409,0 -15.251,-6.842 -15.251,-15.252 l 0,-83.821 c 0,-8.41 6.842,-15.252 15.251,-15.252 l 83.82,0 c 8.409,0 15.251,6.842 15.251,15.252 l 0,83.821 z"
         id="path14"
         inkscape:connector-curvature="0" /><circle
         cx="181.688"
         cy="160.405"
         r="8.9659996"
         id="circle16" /><circle
         cx="210.476"
         cy="160.405"
         r="8.9659996"
         id="circle18" /><circle
         cx="239.261"
         cy="160.405"
         r="8.9659996"
         id="circle20" /></g></g><g
     style="display:none"
     display="none"
     id="g22"
     transform="translate(-147.642,-96.155)"><g
       style="display:inline"
       display="inline"
       id="g24"><path
         d="m 252.383,97.574 -83.82,0 c -11.535,0 -20.921,9.386 -20.921,20.922 l 0,83.821 c 0,11.535 9.386,20.92 20.921,20.92 l 41.703,0 c 8.213,11.482 22.034,24.879 42.395,26.398 l 5.586,0.414 -2.974,-4.748 c -0.068,-0.109 -6.36,-10.258 -8.727,-22.064 l 5.837,0 c 11.535,0 20.921,-9.385 20.921,-20.92 l 0,-83.821 c 0,-11.537 -9.386,-20.922 -20.921,-20.922 z m 15.251,104.742 c 0,8.41 -6.842,15.252 -15.251,15.252 l -12.413,0 0.421,3.203 c 1.187,9.029 4.729,17.375 7.282,22.465 -15.914,-3.221 -26.94,-14.787 -33.602,-24.443 l -0.845,-1.225 -44.664,0 c -8.409,0 -15.251,-6.842 -15.251,-15.252 l 0,-83.821 c 0,-8.41 6.842,-15.252 15.251,-15.252 l 83.82,0 c 8.409,0 15.251,6.842 15.251,15.252 l 0,83.821 z"
         id="path26"
         inkscape:connector-curvature="0" /><path
         d="m 242.944,172.884 -64.938,0 c -2.657,0 -4.81,2.023 -4.81,4.52 0,2.498 2.152,4.521 4.81,4.521 l 64.938,0 c 2.656,0 4.811,-2.023 4.811,-4.521 0,-2.496 -2.154,-4.52 -4.811,-4.52 z"
         id="path28"
         inkscape:connector-curvature="0" /><path
         d="m 242.944,155.884 -64.938,0 c -2.657,0 -4.81,2.023 -4.81,4.521 0,2.498 2.152,4.521 4.81,4.521 l 64.938,0 c 2.656,0 4.811,-2.023 4.811,-4.521 0,-2.498 -2.154,-4.521 -4.811,-4.521 z"
         id="path30"
         inkscape:connector-curvature="0" /><path
         d="m 242.944,138.884 -64.938,0 c -2.657,0 -4.81,2.023 -4.81,4.521 0,2.498 2.152,4.521 4.81,4.521 l 64.938,0 c 2.656,0 4.811,-2.023 4.811,-4.521 0,-2.498 -2.154,-4.521 -4.811,-4.521 z"
         id="path32"
         inkscape:connector-curvature="0" /></g></g><g
     style="display:none"
     display="none"
     id="g34"
     transform="translate(-147.642,-96.155)"><g
       style="display:inline"
       display="inline"
       id="g36"><path
         d="m 252.383,97.574 -83.82,0 c -11.535,0 -20.921,9.386 -20.921,20.922 l 0,83.821 c 0,11.535 9.386,20.92 20.921,20.92 l 41.703,0 c 8.213,11.482 22.034,24.879 42.395,26.398 l 5.586,0.414 -2.974,-4.748 c -0.068,-0.109 -6.36,-10.258 -8.727,-22.064 l 5.837,0 c 11.535,0 20.921,-9.385 20.921,-20.92 l 0,-83.821 c 0,-11.537 -9.386,-20.922 -20.921,-20.922 z m 15.251,104.742 c 0,8.41 -6.842,15.252 -15.251,15.252 l -12.413,0 0.421,3.203 c 1.187,9.029 4.729,17.375 7.282,22.465 -15.914,-3.221 -26.94,-14.787 -33.602,-24.443 l -0.845,-1.225 -44.664,0 c -8.409,0 -15.251,-6.842 -15.251,-15.252 l 0,-83.821 c 0,-8.41 6.842,-15.252 15.251,-15.252 l 83.82,0 c 8.409,0 15.251,6.842 15.251,15.252 l 0,83.821 z"
         id="path38"
         inkscape:connector-curvature="0" /><path
         d="m 236.837,134.044 c -1.766,-1.766 -4.72,-1.674 -6.598,0.205 l -19.764,19.762 -19.762,-19.762 c -1.879,-1.879 -4.833,-1.971 -6.598,-0.205 -1.766,1.766 -1.674,4.719 0.204,6.598 l 19.763,19.763 -19.763,19.763 c -1.878,1.879 -1.97,4.832 -0.204,6.598 1.765,1.766 4.719,1.674 6.598,-0.205 l 19.762,-19.762 19.764,19.762 c 1.878,1.879 4.832,1.971 6.598,0.205 1.766,-1.766 1.674,-4.719 -0.205,-6.598 l -19.763,-19.763 19.763,-19.763 c 1.879,-1.879 1.971,-4.832 0.205,-6.598 z"
         id="path40"
         inkscape:connector-curvature="0" /></g></g><g
     style="display:none"
     display="none"
     id="g42"
     transform="translate(-147.642,-96.155)"><g
       style="display:inline"
       display="inline"
       id="g44"><path
         d="m 252.383,97.574 -83.82,0 c -11.535,0 -20.921,9.386 -20.921,20.922 l 0,83.821 c 0,11.535 9.386,20.92 20.921,20.92 l 41.703,0 c 8.213,11.482 22.034,24.879 42.395,26.398 l 5.586,0.414 -2.974,-4.748 c -0.068,-0.109 -6.36,-10.258 -8.727,-22.064 l 5.837,0 c 11.535,0 20.921,-9.385 20.921,-20.92 l 0,-83.821 c 0,-11.537 -9.386,-20.922 -20.921,-20.922 z m 15.251,104.742 c 0,8.41 -6.842,15.252 -15.251,15.252 l -12.413,0 0.421,3.203 c 1.187,9.029 4.729,17.375 7.282,22.465 -15.914,-3.221 -26.94,-14.787 -33.602,-24.443 l -0.845,-1.225 -44.664,0 c -8.409,0 -15.251,-6.842 -15.251,-15.252 l 0,-83.821 c 0,-8.41 6.842,-15.252 15.251,-15.252 l 83.82,0 c 8.409,0 15.251,6.842 15.251,15.252 l 0,83.821 z"
         id="path46"
         inkscape:connector-curvature="0" /><path
         d="m 240.56,134.683 -41.416,42.235 -18.971,-21.092 c -1.729,-1.919 -4.502,-2.072 -6.195,-0.346 -1.695,1.729 -1.668,4.683 0.061,6.602 l 21.47,23.872 c 0.782,0.869 1.78,1.355 2.796,1.49 0.078,0.016 0.156,0.023 0.234,0.037 0.039,0.002 0.078,0.008 0.117,0.01 1.291,0.162 2.671,-0.275 3.722,-1.346 l 44.062,-44.934 c 1.803,-1.838 1.947,-4.789 0.324,-6.592 -1.624,-1.802 -4.402,-1.774 -6.204,0.064 z"
         id="path48"
         inkscape:connector-curvature="0" /></g></g><g
     style="display:none"
     display="none"
     id="g50"
     transform="translate(-147.642,-96.155)"><g
       style="display:inline"
       display="inline"
       id="g52"><path
         d="m 252.383,97.574 -83.82,0 c -11.535,0 -20.921,9.386 -20.921,20.922 l 0,83.821 c 0,11.535 9.386,20.92 20.921,20.92 l 41.703,0 c 8.213,11.482 22.034,24.879 42.395,26.398 l 5.586,0.414 -2.974,-4.748 c -0.068,-0.109 -6.36,-10.258 -8.727,-22.064 l 5.837,0 c 11.535,0 20.921,-9.385 20.921,-20.92 l 0,-83.821 c 0,-11.537 -9.386,-20.922 -20.921,-20.922 z m 15.251,104.742 c 0,8.41 -6.842,15.252 -15.251,15.252 l -12.413,0 0.421,3.203 c 1.187,9.029 4.729,17.375 7.282,22.465 -15.914,-3.221 -26.94,-14.787 -33.602,-24.443 l -0.845,-1.225 -44.664,0 c -8.409,0 -15.251,-6.842 -15.251,-15.252 l 0,-83.821 c 0,-8.41 6.842,-15.252 15.251,-15.252 l 83.82,0 c 8.409,0 15.251,6.842 15.251,15.252 l 0,83.821 z"
         id="path54"
         inkscape:connector-curvature="0" /><path
         d="m 209.82,178.115 c -4.079,0 -6.833,2.117 -6.833,5.252 0,3.135 2.754,5.328 6.833,5.328 4.079,0 6.934,-2.193 6.934,-5.328 0,-3.135 -2.855,-5.252 -6.934,-5.252 z"
         id="path56"
         inkscape:connector-curvature="0" /><path
         d="m 210.126,132.114 c -9.892,0 -16.826,5.722 -17.438,14.577 -0.102,0.939 0.611,1.41 1.732,1.41 l 7.955,0 c 1.122,0 1.836,-0.471 1.836,-1.41 0.407,-3.84 2.447,-6.113 6.322,-6.113 4.283,0 6.016,2.586 6.016,5.563 0,9.17 -12.746,9.953 -12.746,24.766 l 0,1.959 c 0,0.861 0.714,1.332 1.835,1.332 l 8.261,0 c 1.121,0 1.835,-0.471 1.835,-1.332 l 0,-2.038 c 0,-11.05 12.543,-12.46 12.543,-25.234 0,-8.073 -7.342,-13.48 -18.151,-13.48 z"
         id="path58"
         inkscape:connector-curvature="0" /></g></g><g
     style="display:none"
     display="none"
     id="g60"
     transform="translate(-147.642,-96.155)"><g
       style="display:inline"
       display="inline"
       id="g62"><path
         d="m 252.383,97.574 -83.82,0 c -11.535,0 -20.921,9.386 -20.921,20.922 l 0,83.821 c 0,11.535 9.386,20.92 20.921,20.92 l 41.703,0 c 8.213,11.482 22.034,24.879 42.395,26.398 l 5.586,0.414 -2.974,-4.748 c -0.068,-0.109 -6.36,-10.258 -8.727,-22.064 l 5.837,0 c 11.535,0 20.921,-9.385 20.921,-20.92 l 0,-83.821 c 0,-11.537 -9.386,-20.922 -20.921,-20.922 z m 15.251,104.742 c 0,8.41 -6.842,15.252 -15.251,15.252 l -12.413,0 0.421,3.203 c 1.187,9.029 4.729,17.375 7.282,22.465 -15.914,-3.221 -26.94,-14.787 -33.602,-24.443 l -0.845,-1.225 -44.664,0 c -8.409,0 -15.251,-6.842 -15.251,-15.252 l 0,-83.821 c 0,-8.41 6.842,-15.252 15.251,-15.252 l 83.82,0 c 8.409,0 15.251,6.842 15.251,15.252 l 0,83.821 z"
         id="path64"
         inkscape:connector-curvature="0" /><path
         d="m 206.56,174.727 7.742,0 c 1.134,0 1.7,-0.482 1.7,-1.448 l 0,-40.15 c 0,-0.885 -0.566,-1.367 -1.7,-1.367 l -7.742,0 c -1.133,0 -1.699,0.482 -1.699,1.367 l 0,40.15 c -10e-4,0.966 0.566,1.448 1.699,1.448 z"
         id="path66"
         inkscape:connector-curvature="0" /><path
         d="m 210.431,178.188 c -3.777,0 -6.326,2.172 -6.326,5.391 0,3.219 2.549,5.471 6.326,5.471 3.777,0 6.42,-2.252 6.42,-5.471 0,-3.219 -2.643,-5.391 -6.42,-5.391 z"
         id="path68"
         inkscape:connector-curvature="0" /></g></g><g
     style="display:none"
     display="none"
     id="g70"
     transform="translate(-147.642,-96.155)"><g
       style="display:inline"
       display="inline"
       id="g72"><path
         d="m 258.246,250.049 -5.586,-0.414 c -20.359,-1.52 -34.182,-14.916 -42.395,-26.398 l -62.624,0 0,-125.663 125.664,0 0,125.663 -26.76,0 c 2.367,11.807 8.658,21.955 8.727,22.064 l 2.974,4.748 z m -104.935,-32.481 59.916,0 0.844,1.225 c 6.662,9.656 17.688,21.223 33.602,24.443 -2.553,-5.09 -6.096,-13.438 -7.281,-22.465 l -0.422,-3.203 27.666,0 0,-114.324 -114.325,0 0,114.324 z"
         id="path74"
         inkscape:connector-curvature="0" /></g></g><g
     style="display:none"
     display="none"
     id="g76"
     transform="translate(-147.642,-96.155)"><g
       style="display:inline"
       display="inline"
       id="g78"><path
         d="m 273.305,97.574 -125.664,0 0,125.663 62.624,0 c 8.213,11.482 22.036,24.879 42.395,26.398 l 5.586,0.414 -2.975,-4.748 c -0.068,-0.109 -6.359,-10.258 -8.727,-22.064 l 26.76,0 0,-125.663 z m -5.67,119.994 -27.666,0 0.422,3.203 c 1.186,9.027 4.729,17.375 7.281,22.465 -15.914,-3.221 -26.939,-14.787 -33.602,-24.443 l -0.844,-1.225 -59.916,0 0,-114.324 114.324,0 0,114.324 z"
         id="path80"
         inkscape:connector-curvature="0" /><circle
         cx="181.688"
         cy="160.405"
         r="8.9659996"
         id="circle82" /><circle
         cx="210.47501"
         cy="160.405"
         r="8.9659996"
         id="circle84" /><circle
         cx="239.25999"
         cy="160.405"
         r="8.9659996"
         id="circle86" /></g></g><g
     style="display:none"
     display="none"
     id="g88"
     transform="translate(-147.642,-96.155)"><g
       style="display:inline"
       display="inline"
       id="g90"><path
         d="m 273.305,97.574 -125.664,0 0,125.663 62.624,0 c 8.213,11.482 22.036,24.879 42.395,26.398 l 5.586,0.414 -2.975,-4.748 c -0.068,-0.109 -6.359,-10.258 -8.727,-22.064 l 26.76,0 0,-125.663 z m -5.67,119.994 -27.666,0 0.422,3.203 c 1.186,9.027 4.729,17.375 7.281,22.465 -15.914,-3.221 -26.939,-14.787 -33.602,-24.443 l -0.844,-1.225 -59.916,0 0,-114.324 114.324,0 0,114.324 z"
         id="path92"
         inkscape:connector-curvature="0" /><path
         d="m 178.005,181.926 64.938,0 c 2.656,0 4.811,-2.023 4.811,-4.521 0,-2.497 -2.154,-4.52 -4.811,-4.52 l -64.938,0 c -2.657,0 -4.81,2.023 -4.81,4.52 0.001,2.497 2.153,4.521 4.81,4.521 z"
         id="path94"
         inkscape:connector-curvature="0" /><path
         d="m 178.005,164.925 64.938,0 c 2.656,0 4.811,-2.023 4.811,-4.521 0,-2.498 -2.154,-4.521 -4.811,-4.521 l -64.938,0 c -2.657,0 -4.81,2.023 -4.81,4.521 0,2.498 2.153,4.521 4.81,4.521 z"
         id="path96"
         inkscape:connector-curvature="0" /><path
         d="m 178.005,147.925 64.938,0 c 2.656,0 4.811,-2.023 4.811,-4.521 0,-2.498 -2.154,-4.521 -4.811,-4.521 l -64.938,0 c -2.657,0 -4.81,2.023 -4.81,4.521 0,2.498 2.153,4.521 4.81,4.521 z"
         id="path98"
         inkscape:connector-curvature="0" /></g></g><g
     style="display:none"
     display="none"
     id="g100"
     transform="translate(-147.642,-96.155)"><g
       style="display:inline"
       display="inline"
       id="g102"><path
         d="m 273.305,97.574 -125.664,0 0,125.663 62.624,0 c 8.213,11.482 22.036,24.879 42.395,26.398 l 5.586,0.414 -2.975,-4.748 c -0.068,-0.109 -6.359,-10.258 -8.727,-22.064 l 26.76,0 0,-125.663 z m -5.67,119.994 -27.666,0 0.422,3.203 c 1.186,9.027 4.729,17.375 7.281,22.465 -15.914,-3.221 -26.939,-14.787 -33.602,-24.443 l -0.844,-1.225 -59.916,0 0,-114.324 114.324,0 0,114.324 z"
         id="path104"
         inkscape:connector-curvature="0" /><path
         d="m 184.116,186.766 c 1.765,1.766 4.719,1.674 6.598,-0.205 l 19.762,-19.762 19.763,19.762 c 1.879,1.879 4.832,1.971 6.598,0.205 1.766,-1.766 1.674,-4.719 -0.205,-6.598 l -19.762,-19.763 19.762,-19.763 c 1.879,-1.879 1.971,-4.832 0.205,-6.598 -1.766,-1.766 -4.719,-1.674 -6.598,0.205 l -19.763,19.762 -19.762,-19.762 c -1.879,-1.879 -4.833,-1.971 -6.598,-0.205 -1.766,1.766 -1.674,4.719 0.204,6.598 l 19.763,19.763 -19.763,19.763 c -1.878,1.879 -1.97,4.832 -0.204,6.598 z"
         id="path106"
         inkscape:connector-curvature="0" /></g></g><g
     style="display:none"
     display="none"
     id="g108"
     transform="translate(-147.642,-96.155)"><g
       style="display:inline"
       display="inline"
       id="g110"><path
         d="m 273.305,97.574 -125.664,0 0,125.663 62.624,0 c 8.213,11.482 22.036,24.879 42.395,26.398 l 5.586,0.414 -2.975,-4.748 c -0.068,-0.109 -6.359,-10.258 -8.727,-22.064 l 26.76,0 0,-125.663 z m -5.67,119.994 -27.666,0 0.422,3.203 c 1.186,9.027 4.729,17.375 7.281,22.465 -15.914,-3.221 -26.939,-14.787 -33.602,-24.443 l -0.844,-1.225 -59.916,0 0,-114.324 114.324,0 0,114.324 z"
         id="path112"
         inkscape:connector-curvature="0" /><path
         d="m 195.507,185.953 c 0.782,0.869 1.78,1.355 2.796,1.49 0.078,0.016 0.156,0.023 0.234,0.037 0.039,0.002 0.078,0.008 0.117,0.01 1.291,0.162 2.671,-0.275 3.722,-1.346 l 44.061,-44.934 c 1.803,-1.838 1.947,-4.789 0.324,-6.592 -1.623,-1.802 -4.4,-1.773 -6.203,0.064 l -41.416,42.235 -18.971,-21.092 c -1.729,-1.919 -4.502,-2.072 -6.195,-0.346 -1.695,1.729 -1.668,4.683 0.061,6.602 l 21.47,23.872 z"
         id="path114"
         inkscape:connector-curvature="0" /></g></g><g
     style="display:none"
     display="none"
     id="g116"
     transform="translate(-147.642,-96.155)"><g
       style="display:inline"
       display="inline"
       id="g118"><path
         d="m 273.305,97.574 -125.664,0 0,125.663 62.624,0 c 8.213,11.482 22.036,24.879 42.395,26.398 l 5.586,0.414 -2.975,-4.748 c -0.068,-0.109 -6.359,-10.258 -8.727,-22.064 l 26.76,0 0,-125.663 z m -5.67,119.994 -27.666,0 0.422,3.203 c 1.186,9.027 4.729,17.375 7.281,22.465 -15.914,-3.221 -26.939,-14.787 -33.602,-24.443 l -0.844,-1.225 -59.916,0 0,-114.324 114.324,0 0,114.324 z"
         id="path120"
         inkscape:connector-curvature="0" /><path
         d="m 209.82,178.115 c -4.079,0 -6.833,2.117 -6.833,5.252 0,3.135 2.754,5.328 6.833,5.328 4.079,0 6.934,-2.193 6.934,-5.328 0,-3.135 -2.856,-5.252 -6.934,-5.252 z"
         id="path122"
         inkscape:connector-curvature="0" /><path
         d="m 194.42,148.101 7.955,0 c 1.122,0 1.836,-0.471 1.836,-1.41 0.407,-3.84 2.447,-6.113 6.322,-6.113 4.283,0 6.015,2.586 6.015,5.563 0,9.17 -12.746,9.953 -12.746,24.766 l 0,1.959 c 0,0.861 0.714,1.332 1.835,1.332 l 8.26,0 c 1.121,0 1.836,-0.471 1.836,-1.332 l 0,-2.038 c 0,-11.05 12.543,-12.46 12.543,-25.234 0,-8.072 -7.344,-13.479 -18.152,-13.479 -9.892,0 -16.826,5.722 -17.438,14.577 -0.1,0.938 0.613,1.409 1.734,1.409 z"
         id="path124"
         inkscape:connector-curvature="0" /></g></g><g
     style="display:none"
     display="none"
     id="g126"
     transform="translate(-147.642,-96.155)"><g
       style="display:inline"
       display="inline"
       id="g128"><path
         d="m 273.305,97.574 -125.664,0 0,125.663 62.624,0 c 8.213,11.482 22.036,24.879 42.395,26.398 l 5.586,0.414 -2.975,-4.748 c -0.068,-0.109 -6.359,-10.258 -8.727,-22.064 l 26.76,0 0,-125.663 z m -5.67,119.994 -27.666,0 0.422,3.203 c 1.186,9.027 4.729,17.375 7.281,22.465 -15.914,-3.221 -26.939,-14.787 -33.602,-24.443 l -0.844,-1.225 -59.916,0 0,-114.324 114.324,0 0,114.324 z"
         id="path130"
         inkscape:connector-curvature="0" /><path
         d="m 206.559,174.727 7.742,0 c 1.135,0 1.701,-0.482 1.701,-1.448 l 0,-40.15 c 0,-0.885 -0.566,-1.367 -1.701,-1.367 l -7.742,0 c -1.133,0 -1.699,0.482 -1.699,1.367 l 0,40.15 c 0,0.966 0.566,1.448 1.699,1.448 z"
         id="path132"
         inkscape:connector-curvature="0" /><path
         d="m 210.43,189.049 c 3.777,0 6.419,-2.252 6.419,-5.471 0,-3.219 -2.643,-5.391 -6.419,-5.391 -3.777,0 -6.326,2.172 -6.326,5.391 0,3.219 2.549,5.471 6.326,5.471 z"
         id="path134"
         inkscape:connector-curvature="0" /></g></g><g
     style="display:none"
     display="none"
     id="g136"
     transform="translate(-147.642,-96.155)"><g
       style="display:inline"
       display="inline"
       id="g138"><path
         d="m 246.036,251.469 -35.33,-29.65 -42.144,0 c -11.535,0 -20.921,-9.387 -20.921,-20.922 l 0,-83.821 c 0,-11.535 9.386,-20.921 20.921,-20.921 l 83.82,0 c 11.535,0 20.921,9.386 20.921,20.921 l 0,83.821 c 0,11.535 -9.386,20.922 -20.921,20.922 l -6.347,0 0,29.65 z M 168.563,101.825 c -8.409,0 -15.251,6.842 -15.251,15.251 l 0,83.821 c 0,8.41 6.842,15.252 15.251,15.252 l 44.208,0 27.596,23.16 0,-23.16 12.017,0 c 8.409,0 15.251,-6.842 15.251,-15.252 l 0,-83.821 c 0,-8.409 -6.842,-15.251 -15.251,-15.251 l -83.821,0 z"
         id="path140"
         inkscape:connector-curvature="0" /></g></g><g
     style="display:none"
     display="none"
     id="g142"
     transform="translate(-147.642,-96.155)"><g
       style="display:inline"
       display="inline"
       id="g144"><path
         d="m 252.383,96.155 -83.82,0 c -11.535,0 -20.921,9.386 -20.921,20.921 l 0,83.821 c 0,11.535 9.386,20.922 20.921,20.922 l 42.144,0 35.33,29.65 0,-29.65 6.347,0 c 11.535,0 20.921,-9.387 20.921,-20.922 l 0,-83.821 c -0.001,-11.535 -9.387,-20.921 -20.922,-20.921 z m 15.251,104.741 c 0,8.41 -6.842,15.252 -15.251,15.252 l -12.017,0 0,23.16 -27.596,-23.16 -44.208,0 c -8.409,0 -15.251,-6.842 -15.251,-15.252 l 0,-83.821 c 0,-8.409 6.842,-15.251 15.251,-15.251 l 83.82,0 c 8.409,0 15.251,6.842 15.251,15.251 l 0,83.821 z"
         id="path146"
         inkscape:connector-curvature="0" /><circle
         cx="181.688"
         cy="158.36301"
         r="8.9659996"
         id="circle148" /><circle
         cx="210.476"
         cy="158.36301"
         r="8.9659996"
         id="circle150" /><circle
         cx="239.261"
         cy="158.36301"
         r="8.9659996"
         id="circle152" /></g></g><g
     style="display:none"
     display="none"
     id="g154"
     transform="translate(-147.642,-96.155)"><g
       style="display:inline"
       display="inline"
       id="g156"><path
         d="m 252.383,96.155 -83.82,0 c -11.535,0 -20.921,9.386 -20.921,20.921 l 0,83.821 c 0,11.535 9.386,20.922 20.921,20.922 l 42.144,0 35.33,29.65 0,-29.65 6.347,0 c 11.535,0 20.921,-9.387 20.921,-20.922 l 0,-83.821 c -0.001,-11.535 -9.387,-20.921 -20.922,-20.921 z m 15.251,104.741 c 0,8.41 -6.842,15.252 -15.251,15.252 l -12.017,0 0,23.16 -27.596,-23.16 -44.208,0 c -8.409,0 -15.251,-6.842 -15.251,-15.252 l 0,-83.821 c 0,-8.409 6.842,-15.251 15.251,-15.251 l 83.82,0 c 8.409,0 15.251,6.842 15.251,15.251 l 0,83.821 z"
         id="path158"
         inkscape:connector-curvature="0" /><path
         d="m 242.944,170.842 -64.938,0 c -2.657,0 -4.81,2.023 -4.81,4.521 0,2.497 2.152,4.52 4.81,4.52 l 64.938,0 c 2.656,0 4.811,-2.023 4.811,-4.52 0,-2.497 -2.154,-4.521 -4.811,-4.521 z"
         id="path160"
         inkscape:connector-curvature="0" /><path
         d="m 242.944,153.842 -64.938,0 c -2.657,0 -4.81,2.023 -4.81,4.521 0,2.498 2.152,4.521 4.81,4.521 l 64.938,0 c 2.656,0 4.811,-2.023 4.811,-4.521 0,-2.498 -2.154,-4.521 -4.811,-4.521 z"
         id="path162"
         inkscape:connector-curvature="0" /><path
         d="m 242.944,136.842 -64.938,0 c -2.657,0 -4.81,2.023 -4.81,4.521 0,2.498 2.152,4.521 4.81,4.521 l 64.938,0 c 2.656,0 4.811,-2.023 4.811,-4.521 0,-2.498 -2.154,-4.521 -4.811,-4.521 z"
         id="path164"
         inkscape:connector-curvature="0" /></g></g><g
     id="g166"
     transform="translate(-147.642,-96.155)"
     style="fill:#ffffff"><g
       id="g168"
       style="fill:#ffffff"><path
         d="m 252.383,96.155 -83.82,0 c -11.535,0 -20.921,9.386 -20.921,20.921 l 0,83.821 c 0,11.535 9.386,20.922 20.921,20.922 l 42.144,0 35.33,29.65 0,-29.65 6.347,0 c 11.535,0 20.921,-9.387 20.921,-20.922 l 0,-83.821 c -0.001,-11.535 -9.387,-20.921 -20.922,-20.921 z m 15.251,104.741 c 0,8.41 -6.842,15.252 -15.251,15.252 l -12.017,0 0,23.16 -27.596,-23.16 -44.208,0 c -8.409,0 -15.251,-6.842 -15.251,-15.252 l 0,-83.821 c 0,-8.409 6.842,-15.251 15.251,-15.251 l 83.82,0 c 8.409,0 15.251,6.842 15.251,15.251 l 0,83.821 z"
         id="path170"
         inkscape:connector-curvature="0"
         style="fill:#ffffff" /><path
         d="m 236.837,132.002 c -1.766,-1.766 -4.72,-1.674 -6.598,0.205 l -19.764,19.762 -19.762,-19.762 c -1.879,-1.879 -4.833,-1.971 -6.598,-0.205 -1.766,1.766 -1.674,4.719 0.204,6.598 l 19.763,19.763 -19.763,19.762 c -1.878,1.879 -1.97,4.832 -0.204,6.598 1.765,1.766 4.719,1.674 6.598,-0.205 l 19.762,-19.761 19.764,19.761 c 1.878,1.879 4.832,1.971 6.598,0.205 1.766,-1.766 1.674,-4.719 -0.205,-6.598 L 216.869,158.363 236.632,138.6 c 1.879,-1.879 1.971,-4.832 0.205,-6.598 z"
         id="path172"
         inkscape:connector-curvature="0"
         style="fill:#ffffff" /></g></g><g
     style="display:none"
     display="none"
     id="g174"
     transform="translate(-147.642,-96.155)"><g
       style="display:inline"
       display="inline"
       id="g176"><path
         d="m 252.383,96.155 -83.82,0 c -11.535,0 -20.921,9.386 -20.921,20.921 l 0,83.821 c 0,11.535 9.386,20.922 20.921,20.922 l 42.144,0 35.33,29.65 0,-29.65 6.347,0 c 11.535,0 20.921,-9.387 20.921,-20.922 l 0,-83.821 c -0.001,-11.535 -9.387,-20.921 -20.922,-20.921 z m 15.251,104.741 c 0,8.41 -6.842,15.252 -15.251,15.252 l -12.017,0 0,23.16 -27.596,-23.16 -44.208,0 c -8.409,0 -15.251,-6.842 -15.251,-15.252 l 0,-83.821 c 0,-8.409 6.842,-15.251 15.251,-15.251 l 83.82,0 c 8.409,0 15.251,6.842 15.251,15.251 l 0,83.821 z"
         id="path178"
         inkscape:connector-curvature="0" /><path
         d="m 240.56,132.641 -41.416,42.235 -18.971,-21.093 c -1.729,-1.919 -4.502,-2.072 -6.195,-0.346 -1.695,1.729 -1.668,4.683 0.061,6.602 l 21.47,23.871 c 0.782,0.869 1.78,1.355 2.796,1.49 0.078,0.018 0.156,0.025 0.234,0.037 0.039,0.002 0.078,0.01 0.117,0.01 1.291,0.164 2.671,-0.273 3.722,-1.346 l 44.062,-44.933 c 1.803,-1.838 1.947,-4.789 0.324,-6.592 -1.624,-1.801 -4.402,-1.773 -6.204,0.065 z"
         id="path180"
         inkscape:connector-curvature="0" /></g></g><g
     style="display:none"
     display="none"
     id="g182"
     transform="translate(-147.642,-96.155)"><g
       style="display:inline"
       display="inline"
       id="g184"><path
         d="m 252.383,96.155 -83.82,0 c -11.535,0 -20.921,9.386 -20.921,20.921 l 0,83.821 c 0,11.535 9.386,20.922 20.921,20.922 l 42.144,0 35.33,29.65 0,-29.65 6.347,0 c 11.535,0 20.921,-9.387 20.921,-20.922 l 0,-83.821 c -0.001,-11.535 -9.387,-20.921 -20.922,-20.921 z m 15.251,104.741 c 0,8.41 -6.842,15.252 -15.251,15.252 l -12.017,0 0,23.16 -27.596,-23.16 -44.208,0 c -8.409,0 -15.251,-6.842 -15.251,-15.252 l 0,-83.821 c 0,-8.409 6.842,-15.251 15.251,-15.251 l 83.82,0 c 8.409,0 15.251,6.842 15.251,15.251 l 0,83.821 z"
         id="path186"
         inkscape:connector-curvature="0" /><path
         d="m 209.82,176.074 c -4.079,0 -6.833,2.115 -6.833,5.25 0,3.135 2.754,5.33 6.833,5.33 4.079,0 6.934,-2.195 6.934,-5.33 0,-3.135 -2.855,-5.25 -6.934,-5.25 z"
         id="path188"
         inkscape:connector-curvature="0" /><path
         d="m 210.126,130.072 c -9.892,0 -16.826,5.722 -17.438,14.577 -0.102,0.939 0.611,1.41 1.732,1.41 l 7.955,0 c 1.122,0 1.836,-0.471 1.836,-1.41 0.407,-3.84 2.447,-6.113 6.322,-6.113 4.283,0 6.016,2.586 6.016,5.563 0,9.17 -12.746,9.953 -12.746,24.766 l 0,1.959 c 0,0.861 0.714,1.332 1.835,1.332 l 8.261,0 c 1.121,0 1.835,-0.471 1.835,-1.332 l 0,-2.038 c 0,-11.05 12.543,-12.46 12.543,-25.234 0,-8.073 -7.342,-13.48 -18.151,-13.48 z"
         id="path190"
         inkscape:connector-curvature="0" /></g></g><g
     style="display:none"
     display="none"
     id="g192"
     transform="translate(-147.642,-96.155)"><g
       style="display:inline"
       display="inline"
       id="g194"><path
         d="m 252.383,96.155 -83.82,0 c -11.535,0 -20.921,9.386 -20.921,20.921 l 0,83.821 c 0,11.535 9.386,20.922 20.921,20.922 l 42.144,0 35.33,29.65 0,-29.65 6.347,0 c 11.535,0 20.921,-9.387 20.921,-20.922 l 0,-83.821 c -0.001,-11.535 -9.387,-20.921 -20.922,-20.921 z m 15.251,104.741 c 0,8.41 -6.842,15.252 -15.251,15.252 l -12.017,0 0,23.16 -27.596,-23.16 -44.208,0 c -8.409,0 -15.251,-6.842 -15.251,-15.252 l 0,-83.821 c 0,-8.409 6.842,-15.251 15.251,-15.251 l 83.82,0 c 8.409,0 15.251,6.842 15.251,15.251 l 0,83.821 z"
         id="path196"
         inkscape:connector-curvature="0" /><path
         d="m 206.56,172.685 7.742,0 c 1.134,0 1.7,-0.482 1.7,-1.448 l 0,-40.15 c 0,-0.885 -0.566,-1.367 -1.7,-1.367 l -7.742,0 c -1.133,0 -1.699,0.482 -1.699,1.367 l 0,40.15 c -10e-4,0.966 0.566,1.448 1.699,1.448 z"
         id="path198"
         inkscape:connector-curvature="0" /><path
         d="m 210.431,176.145 c -3.777,0 -6.326,2.172 -6.326,5.391 0,3.219 2.549,5.471 6.326,5.471 3.777,0 6.42,-2.252 6.42,-5.471 0,-3.219 -2.643,-5.391 -6.42,-5.391 z"
         id="path200"
         inkscape:connector-curvature="0" /></g></g><g
     style="display:none"
     display="none"
     id="g202"
     transform="translate(-147.642,-96.155)"><g
       style="display:inline"
       display="inline"
       id="g204"><path
         d="m 246.014,251.469 -35.329,-29.65 -63.044,0 0,-125.664 125.664,0 0,125.664 -27.291,0 0,29.65 z m -92.703,-35.321 59.439,0 27.594,23.16 0,-23.16 27.291,0 0,-114.323 -114.324,0 0,114.323 z"
         id="path206"
         inkscape:connector-curvature="0" /></g></g><g
     style="display:none"
     display="none"
     id="g208"
     transform="translate(-147.642,-96.155)"><g
       style="display:inline"
       display="inline"
       id="g210"><path
         d="m 147.641,96.155 0,125.664 63.044,0 35.329,29.65 0,-29.65 27.291,0 0,-125.664 -125.664,0 z m 119.994,119.993 -27.291,0 0,23.16 -27.594,-23.16 -59.439,0 0,-114.323 114.324,0 0,114.323 z"
         id="path212"
         inkscape:connector-curvature="0" /><circle
         cx="181.688"
         cy="158.36301"
         r="8.9659996"
         id="circle214" /><circle
         cx="210.47501"
         cy="158.36301"
         r="8.9659996"
         id="circle216" /><circle
         cx="239.25999"
         cy="158.36301"
         r="8.9659996"
         id="circle218" /></g></g><g
     style="display:none"
     display="none"
     id="g220"
     transform="translate(-147.642,-96.155)"><g
       style="display:inline"
       display="inline"
       id="g222"><path
         d="m 147.641,96.155 0,125.664 63.044,0 35.329,29.65 0,-29.65 27.291,0 0,-125.664 -125.664,0 z m 119.994,119.993 -27.291,0 0,23.16 -27.594,-23.16 -59.439,0 0,-114.323 114.324,0 0,114.323 z"
         id="path224"
         inkscape:connector-curvature="0" /><path
         d="m 178.005,179.883 64.938,0 c 2.656,0 4.811,-2.023 4.811,-4.52 0,-2.497 -2.154,-4.521 -4.811,-4.521 l -64.938,0 c -2.657,0 -4.81,2.023 -4.81,4.521 0.001,2.496 2.153,4.52 4.81,4.52 z"
         id="path226"
         inkscape:connector-curvature="0" /><path
         d="m 178.005,162.883 64.938,0 c 2.656,0 4.811,-2.023 4.811,-4.521 0,-2.498 -2.154,-4.521 -4.811,-4.521 l -64.938,0 c -2.657,0 -4.81,2.023 -4.81,4.521 0,2.498 2.153,4.521 4.81,4.521 z"
         id="path228"
         inkscape:connector-curvature="0" /><path
         d="m 178.005,145.883 64.938,0 c 2.656,0 4.811,-2.023 4.811,-4.521 0,-2.498 -2.154,-4.521 -4.811,-4.521 l -64.938,0 c -2.657,0 -4.81,2.023 -4.81,4.521 0,2.498 2.153,4.521 4.81,4.521 z"
         id="path230"
         inkscape:connector-curvature="0" /></g></g><g
     style="display:none"
     display="none"
     id="g232"
     transform="translate(-147.642,-96.155)"><g
       style="display:inline"
       display="inline"
       id="g234"><path
         d="m 147.641,96.155 0,125.664 63.044,0 35.329,29.65 0,-29.65 27.291,0 0,-125.664 -125.664,0 z m 119.994,119.993 -27.291,0 0,23.16 -27.594,-23.16 -59.439,0 0,-114.323 114.324,0 0,114.323 z"
         id="path236"
         inkscape:connector-curvature="0" /><path
         d="m 184.116,184.723 c 1.765,1.766 4.719,1.674 6.598,-0.205 l 19.762,-19.761 19.763,19.761 c 1.879,1.879 4.832,1.971 6.598,0.205 1.766,-1.766 1.674,-4.719 -0.205,-6.598 L 216.87,158.363 236.632,138.6 c 1.879,-1.879 1.971,-4.832 0.205,-6.598 -1.766,-1.766 -4.719,-1.674 -6.598,0.205 l -19.763,19.762 -19.762,-19.762 c -1.879,-1.879 -4.833,-1.971 -6.598,-0.205 -1.766,1.766 -1.674,4.719 0.204,6.598 l 19.763,19.763 -19.763,19.762 c -1.878,1.879 -1.97,4.832 -0.204,6.598 z"
         id="path238"
         inkscape:connector-curvature="0" /></g></g><g
     style="display:none"
     display="none"
     id="g240"
     transform="translate(-147.642,-96.155)"><g
       style="display:inline"
       display="inline"
       id="g242"><path
         d="m 147.641,96.155 0,125.664 63.044,0 35.329,29.65 0,-29.65 27.291,0 0,-125.664 -125.664,0 z m 119.994,119.993 -27.291,0 0,23.16 -27.594,-23.16 -59.439,0 0,-114.323 114.324,0 0,114.323 z"
         id="path244"
         inkscape:connector-curvature="0" /><path
         d="m 195.507,183.91 c 0.782,0.869 1.78,1.355 2.796,1.49 0.078,0.018 0.156,0.025 0.234,0.037 0.039,0.002 0.078,0.01 0.117,0.01 1.291,0.164 2.671,-0.273 3.722,-1.346 l 44.061,-44.933 c 1.803,-1.838 1.947,-4.789 0.324,-6.592 -1.623,-1.802 -4.4,-1.773 -6.203,0.064 l -41.416,42.235 -18.971,-21.093 c -1.729,-1.919 -4.502,-2.072 -6.195,-0.346 -1.695,1.729 -1.668,4.683 0.061,6.602 l 21.47,23.872 z"
         id="path246"
         inkscape:connector-curvature="0" /></g></g><g
     style="display:none"
     display="none"
     id="g248"
     transform="translate(-147.642,-96.155)"><g
       style="display:inline"
       display="inline"
       id="g250"><path
         d="m 147.641,96.155 0,125.664 63.044,0 35.329,29.65 0,-29.65 27.291,0 0,-125.664 -125.664,0 z m 119.994,119.993 -27.291,0 0,23.16 -27.594,-23.16 -59.439,0 0,-114.323 114.324,0 0,114.323 z"
         id="path252"
         inkscape:connector-curvature="0" /><path
         d="m 209.82,176.074 c -4.079,0 -6.833,2.115 -6.833,5.25 0,3.135 2.754,5.33 6.833,5.33 4.079,0 6.934,-2.195 6.934,-5.33 0,-3.135 -2.856,-5.25 -6.934,-5.25 z"
         id="path254"
         inkscape:connector-curvature="0" /><path
         d="m 194.42,146.059 7.955,0 c 1.122,0 1.836,-0.471 1.836,-1.41 0.407,-3.84 2.447,-6.113 6.322,-6.113 4.283,0 6.015,2.586 6.015,5.563 0,9.17 -12.746,9.953 -12.746,24.766 l 0,1.959 c 0,0.861 0.714,1.332 1.835,1.332 l 8.26,0 c 1.121,0 1.836,-0.471 1.836,-1.332 l 0,-2.038 c 0,-11.05 12.543,-12.46 12.543,-25.234 0,-8.072 -7.344,-13.479 -18.152,-13.479 -9.892,0 -16.826,5.722 -17.438,14.577 -0.1,0.938 0.613,1.409 1.734,1.409 z"
         id="path256"
         inkscape:connector-curvature="0" /></g></g><g
     style="display:none"
     display="none"
     id="g258"
     transform="translate(-147.642,-96.155)"><g
       style="display:inline"
       display="inline"
       id="g260"><path
         d="m 147.641,96.155 0,125.664 63.044,0 35.329,29.65 0,-29.65 27.291,0 0,-125.664 -125.664,0 z m 119.994,119.993 -27.291,0 0,23.16 -27.594,-23.16 -59.439,0 0,-114.323 114.324,0 0,114.323 z"
         id="path262"
         inkscape:connector-curvature="0" /><path
         d="m 206.559,172.685 7.742,0 c 1.135,0 1.701,-0.482 1.701,-1.448 l 0,-40.15 c 0,-0.885 -0.566,-1.367 -1.701,-1.367 l -7.742,0 c -1.133,0 -1.699,0.482 -1.699,1.367 l 0,40.15 c 0,0.966 0.566,1.448 1.699,1.448 z"
         id="path264"
         inkscape:connector-curvature="0" /><path
         d="m 210.43,187.006 c 3.777,0 6.419,-2.252 6.419,-5.471 0,-3.219 -2.643,-5.391 -6.419,-5.391 -3.777,0 -6.326,2.172 -6.326,5.391 0,3.219 2.549,5.471 6.326,5.471 z"
         id="path266"
         inkscape:connector-curvature="0" /></g></g><g
     style="display:none"
     display="none"
     id="g268"
     transform="translate(-147.642,-96.155)"><g
       style="display:inline"
       display="inline"
       id="g270"><path
         d="m 273.278,251.467 -35.324,-29.646 -69.392,0 c -11.535,0 -20.921,-9.387 -20.921,-20.922 l 0,-83.821 c 0,-11.535 9.386,-20.921 20.921,-20.921 l 83.82,0 c 11.535,0 20.921,9.386 20.921,20.921 l 0,101.907 -0.025,32.482 z M 168.563,101.827 c -8.409,0 -15.251,6.842 -15.251,15.251 l 0,83.821 c 0,8.41 6.842,15.252 15.251,15.252 l 71.456,0 27.6,23.164 0.016,-20.332 0,-101.905 c 0,-8.409 -6.842,-15.251 -15.251,-15.251 l -83.821,0 z"
         id="path272"
         inkscape:connector-curvature="0" /></g></g><g
     style="display:none"
     display="none"
     id="g274"
     transform="translate(-147.642,-96.155)"><g
       style="display:inline"
       display="inline"
       id="g276"><path
         d="m 252.383,96.157 -83.82,0 c -11.535,0 -20.921,9.386 -20.921,20.921 l 0,83.821 c 0,11.535 9.386,20.922 20.921,20.922 l 69.392,0 35.324,29.646 0.025,-32.482 0,-101.907 c 0,-11.536 -9.386,-20.921 -20.921,-20.921 z m 15.251,122.825 -0.016,20.332 -27.6,-23.164 -71.456,0 c -8.409,0 -15.251,-6.842 -15.251,-15.252 l 0,-83.821 c 0,-8.409 6.842,-15.251 15.251,-15.251 l 83.82,0 c 8.409,0 15.251,6.842 15.251,15.251 l 0,101.905 z"
         id="path278"
         inkscape:connector-curvature="0" /><circle
         cx="181.688"
         cy="157.742"
         r="8.9659996"
         id="circle280" /><circle
         cx="210.476"
         cy="157.742"
         r="8.9659996"
         id="circle282" /><circle
         cx="239.261"
         cy="157.742"
         r="8.9659996"
         id="circle284" /></g></g><g
     style="display:none"
     display="none"
     id="g286"
     transform="translate(-147.642,-96.155)"><g
       style="display:inline"
       display="inline"
       id="g288"><path
         d="m 252.383,96.157 -83.82,0 c -11.535,0 -20.921,9.386 -20.921,20.921 l 0,83.821 c 0,11.535 9.386,20.922 20.921,20.922 l 69.392,0 35.324,29.646 0.025,-32.482 0,-101.907 c 0,-11.536 -9.386,-20.921 -20.921,-20.921 z m 15.251,122.825 -0.016,20.332 -27.6,-23.164 -71.456,0 c -8.409,0 -15.251,-6.842 -15.251,-15.252 l 0,-83.821 c 0,-8.409 6.842,-15.251 15.251,-15.251 l 83.82,0 c 8.409,0 15.251,6.842 15.251,15.251 l 0,101.905 z"
         id="path290"
         inkscape:connector-curvature="0" /><path
         d="m 242.944,170.221 -64.938,0 c -2.657,0 -4.81,2.023 -4.81,4.521 0,2.497 2.152,4.52 4.81,4.52 l 64.938,0 c 2.656,0 4.811,-2.023 4.811,-4.52 0,-2.497 -2.154,-4.521 -4.811,-4.521 z"
         id="path292"
         inkscape:connector-curvature="0" /><path
         d="m 242.944,153.221 -64.938,0 c -2.657,0 -4.81,2.023 -4.81,4.521 0,2.498 2.152,4.521 4.81,4.521 l 64.938,0 c 2.656,0 4.811,-2.023 4.811,-4.521 0,-2.498 -2.154,-4.521 -4.811,-4.521 z"
         id="path294"
         inkscape:connector-curvature="0" /><path
         d="m 242.944,136.221 -64.938,0 c -2.657,0 -4.81,2.023 -4.81,4.521 0,2.498 2.152,4.521 4.81,4.521 l 64.938,0 c 2.656,0 4.811,-2.023 4.811,-4.521 0,-2.498 -2.154,-4.521 -4.811,-4.521 z"
         id="path296"
         inkscape:connector-curvature="0" /></g></g><g
     style="display:none"
     display="none"
     id="g298"
     transform="translate(-147.642,-96.155)"><g
       style="display:inline"
       display="inline"
       id="g300"><path
         d="m 252.383,96.157 -83.82,0 c -11.535,0 -20.921,9.386 -20.921,20.921 l 0,83.821 c 0,11.535 9.386,20.922 20.921,20.922 l 69.392,0 35.324,29.646 0.025,-32.482 0,-101.907 c 0,-11.536 -9.386,-20.921 -20.921,-20.921 z m 15.251,122.825 -0.016,20.332 -27.6,-23.164 -71.456,0 c -8.409,0 -15.251,-6.842 -15.251,-15.252 l 0,-83.821 c 0,-8.409 6.842,-15.251 15.251,-15.251 l 83.82,0 c 8.409,0 15.251,6.842 15.251,15.251 l 0,101.905 z"
         id="path302"
         inkscape:connector-curvature="0" /><path
         d="m 236.837,131.381 c -1.766,-1.766 -4.72,-1.674 -6.598,0.205 l -19.764,19.762 -19.762,-19.762 c -1.879,-1.879 -4.833,-1.971 -6.598,-0.205 -1.766,1.766 -1.674,4.719 0.204,6.598 l 19.763,19.763 -19.763,19.762 c -1.878,1.879 -1.97,4.832 -0.204,6.598 1.765,1.766 4.719,1.674 6.598,-0.205 l 19.762,-19.761 19.764,19.761 c 1.878,1.879 4.832,1.971 6.598,0.205 1.766,-1.766 1.674,-4.719 -0.205,-6.598 l -19.763,-19.762 19.763,-19.763 c 1.879,-1.879 1.971,-4.832 0.205,-6.598 z"
         id="path304"
         inkscape:connector-curvature="0" /></g></g><g
     style="display:none"
     display="none"
     id="g306"
     transform="translate(-147.642,-96.155)"><g
       style="display:inline"
       display="inline"
       id="g308"><path
         d="m 252.383,96.157 -83.82,0 c -11.535,0 -20.921,9.386 -20.921,20.921 l 0,83.821 c 0,11.535 9.386,20.922 20.921,20.922 l 69.392,0 35.324,29.646 0.025,-32.482 0,-101.907 c 0,-11.536 -9.386,-20.921 -20.921,-20.921 z m 15.251,122.825 -0.016,20.332 -27.6,-23.164 -71.456,0 c -8.409,0 -15.251,-6.842 -15.251,-15.252 l 0,-83.821 c 0,-8.409 6.842,-15.251 15.251,-15.251 l 83.82,0 c 8.409,0 15.251,6.842 15.251,15.251 l 0,101.905 z"
         id="path310"
         inkscape:connector-curvature="0" /><path
         d="m 240.56,132.02 -41.416,42.235 -18.971,-21.093 c -1.729,-1.919 -4.502,-2.072 -6.195,-0.346 -1.695,1.729 -1.668,4.683 0.061,6.602 l 21.47,23.871 c 0.782,0.869 1.78,1.355 2.796,1.49 0.078,0.018 0.156,0.025 0.234,0.037 0.039,0.002 0.078,0.01 0.117,0.01 1.291,0.164 2.671,-0.273 3.722,-1.346 l 44.062,-44.933 c 1.803,-1.838 1.947,-4.789 0.324,-6.592 -1.624,-1.801 -4.402,-1.773 -6.204,0.065 z"
         id="path312"
         inkscape:connector-curvature="0" /></g></g><g
     style="display:none"
     display="none"
     id="g314"
     transform="translate(-147.642,-96.155)"><g
       style="display:inline"
       display="inline"
       id="g316"><path
         d="m 252.383,96.157 -83.82,0 c -11.535,0 -20.921,9.386 -20.921,20.921 l 0,83.821 c 0,11.535 9.386,20.922 20.921,20.922 l 69.392,0 35.324,29.646 0.025,-32.482 0,-101.907 c 0,-11.536 -9.386,-20.921 -20.921,-20.921 z m 15.251,122.825 -0.016,20.332 -27.6,-23.164 -71.456,0 c -8.409,0 -15.251,-6.842 -15.251,-15.252 l 0,-83.821 c 0,-8.409 6.842,-15.251 15.251,-15.251 l 83.82,0 c 8.409,0 15.251,6.842 15.251,15.251 l 0,101.905 z"
         id="path318"
         inkscape:connector-curvature="0" /><path
         d="m 209.82,175.453 c -4.079,0 -6.833,2.116 -6.833,5.25 0,3.134 2.754,5.33 6.833,5.33 4.079,0 6.934,-2.195 6.934,-5.33 0,-3.135 -2.855,-5.25 -6.934,-5.25 z"
         id="path320"
         inkscape:connector-curvature="0" /><path
         d="m 210.126,129.451 c -9.892,0 -16.826,5.722 -17.438,14.577 -0.102,0.939 0.611,1.41 1.732,1.41 l 7.955,0 c 1.122,0 1.836,-0.471 1.836,-1.41 0.407,-3.84 2.447,-6.113 6.322,-6.113 4.283,0 6.016,2.586 6.016,5.563 0,9.17 -12.746,9.953 -12.746,24.766 l 0,1.959 c 0,0.861 0.714,1.332 1.835,1.332 l 8.261,0 c 1.121,0 1.835,-0.471 1.835,-1.332 l 0,-2.038 c 0,-11.05 12.543,-12.46 12.543,-25.234 0,-8.073 -7.342,-13.48 -18.151,-13.48 z"
         id="path322"
         inkscape:connector-curvature="0" /></g></g><g
     style="display:none"
     display="none"
     id="g324"
     transform="translate(-147.642,-96.155)"><g
       style="display:inline"
       display="inline"
       id="g326"><path
         d="m 252.383,96.157 -83.82,0 c -11.535,0 -20.921,9.386 -20.921,20.921 l 0,83.821 c 0,11.535 9.386,20.922 20.921,20.922 l 69.392,0 35.324,29.646 0.025,-32.482 0,-101.907 c 0,-11.536 -9.386,-20.921 -20.921,-20.921 z m 15.251,122.825 -0.016,20.332 -27.6,-23.164 -71.456,0 c -8.409,0 -15.251,-6.842 -15.251,-15.252 l 0,-83.821 c 0,-8.409 6.842,-15.251 15.251,-15.251 l 83.82,0 c 8.409,0 15.251,6.842 15.251,15.251 l 0,101.905 z"
         id="path328"
         inkscape:connector-curvature="0" /><path
         d="m 206.56,172.064 7.742,0 c 1.134,0 1.7,-0.482 1.7,-1.448 l 0,-40.15 c 0,-0.885 -0.566,-1.367 -1.7,-1.367 l -7.742,0 c -1.133,0 -1.699,0.482 -1.699,1.367 l 0,40.15 c -10e-4,0.966 0.566,1.448 1.699,1.448 z"
         id="path330"
         inkscape:connector-curvature="0" /><path
         d="m 210.431,175.524 c -3.777,0 -6.326,2.171 -6.326,5.39 0,3.219 2.549,5.471 6.326,5.471 3.777,0 6.42,-2.252 6.42,-5.471 0,-3.219 -2.643,-5.39 -6.42,-5.39 z"
         id="path332"
         inkscape:connector-curvature="0" /></g></g><g
     style="display:none"
     display="none"
     id="g334"
     transform="translate(-147.642,-96.155)"><g
       style="display:inline"
       display="inline"
       id="g336"><path
         d="m 273.277,251.466 -35.324,-29.646 -90.312,0 0,-125.663 125.664,0 -0.028,155.309 z m -119.966,-35.316 86.707,0 27.6,23.164 0.016,-20.331 0.002,-117.156 -114.325,0 0,114.323 z"
         id="path338"
         inkscape:connector-curvature="0" /></g></g><g
     style="display:none"
     display="none"
     id="g340"
     transform="translate(-147.642,-96.155)"><g
       style="display:inline"
       display="inline"
       id="g342"><path
         d="m 147.641,96.157 0,125.663 90.312,0 35.324,29.646 0.027,-155.309 -125.663,0 z m 119.992,122.826 -0.016,20.331 -27.6,-23.164 -86.707,0 0,-114.323 114.324,0 -0.001,117.156 z"
         id="path344"
         inkscape:connector-curvature="0" /><circle
         cx="181.688"
         cy="157.742"
         r="8.9659996"
         id="circle346" /><circle
         cx="210.47501"
         cy="157.742"
         r="8.9659996"
         id="circle348" /><circle
         cx="239.25999"
         cy="157.742"
         r="8.9659996"
         id="circle350" /></g></g><g
     style="display:none"
     display="none"
     id="g352"
     transform="translate(-147.642,-96.155)"><g
       style="display:inline"
       display="inline"
       id="g354"><path
         d="m 147.641,96.157 0,125.663 90.312,0 35.324,29.646 0.027,-155.309 -125.663,0 z m 119.992,122.826 -0.016,20.331 -27.6,-23.164 -86.707,0 0,-114.323 114.324,0 -0.001,117.156 z"
         id="path356"
         inkscape:connector-curvature="0" /><path
         d="m 178.005,179.263 64.938,0 c 2.656,0 4.811,-2.023 4.811,-4.521 0,-2.498 -2.154,-4.521 -4.811,-4.521 l -64.938,0 c -2.657,0 -4.81,2.023 -4.81,4.521 0,2.498 2.153,4.521 4.81,4.521 z"
         id="path358"
         inkscape:connector-curvature="0" /><path
         d="m 178.005,162.263 64.938,0 c 2.656,0 4.811,-2.023 4.811,-4.521 0,-2.498 -2.154,-4.521 -4.811,-4.521 l -64.938,0 c -2.657,0 -4.81,2.023 -4.81,4.521 0,2.498 2.153,4.521 4.81,4.521 z"
         id="path360"
         inkscape:connector-curvature="0" /><path
         d="m 178.005,145.263 64.938,0 c 2.656,0 4.811,-2.023 4.811,-4.521 0,-2.498 -2.154,-4.521 -4.811,-4.521 l -64.938,0 c -2.657,0 -4.81,2.023 -4.81,4.521 0,2.498 2.153,4.521 4.81,4.521 z"
         id="path362"
         inkscape:connector-curvature="0" /></g></g><g
     style="display:none"
     display="none"
     id="g364"
     transform="translate(-147.642,-96.155)"><g
       style="display:inline"
       display="inline"
       id="g366"><path
         d="m 147.641,96.157 0,125.663 90.312,0 35.324,29.646 0.027,-155.309 -125.663,0 z m 119.992,122.826 -0.016,20.331 -27.6,-23.164 -86.707,0 0,-114.323 114.324,0 -0.001,117.156 z"
         id="path368"
         inkscape:connector-curvature="0" /><path
         d="m 184.116,184.103 c 1.765,1.766 4.719,1.674 6.598,-0.205 l 19.762,-19.762 19.763,19.762 c 1.879,1.879 4.832,1.971 6.598,0.205 1.766,-1.766 1.674,-4.719 -0.205,-6.598 l -19.762,-19.763 19.762,-19.763 c 1.879,-1.879 1.971,-4.832 0.205,-6.598 -1.766,-1.766 -4.719,-1.674 -6.598,0.205 l -19.763,19.762 -19.762,-19.762 c -1.879,-1.879 -4.833,-1.971 -6.598,-0.205 -1.766,1.766 -1.674,4.719 0.204,6.598 l 19.763,19.763 -19.763,19.763 c -1.878,1.879 -1.97,4.832 -0.204,6.598 z"
         id="path370"
         inkscape:connector-curvature="0" /></g></g><g
     style="display:none"
     display="none"
     id="g372"
     transform="translate(-147.642,-96.155)"><g
       style="display:inline"
       display="inline"
       id="g374"><path
         d="m 147.641,96.157 0,125.663 90.312,0 35.324,29.646 0.027,-155.309 -125.663,0 z m 119.992,122.826 -0.016,20.331 -27.6,-23.164 -86.707,0 0,-114.323 114.324,0 -0.001,117.156 z"
         id="path376"
         inkscape:connector-curvature="0" /><path
         d="m 195.507,183.29 c 0.782,0.869 1.78,1.355 2.796,1.49 0.078,0.017 0.156,0.024 0.234,0.037 0.039,0.002 0.078,0.009 0.117,0.01 1.291,0.163 2.671,-0.274 3.722,-1.346 l 44.061,-44.934 c 1.803,-1.838 1.947,-4.789 0.324,-6.592 -1.623,-1.802 -4.4,-1.773 -6.203,0.064 l -41.416,42.235 -18.971,-21.093 c -1.729,-1.919 -4.502,-2.072 -6.195,-0.346 -1.695,1.729 -1.668,4.683 0.061,6.602 l 21.47,23.873 z"
         id="path378"
         inkscape:connector-curvature="0" /></g></g><g
     style="display:none"
     display="none"
     id="g380"
     transform="translate(-147.642,-96.155)"><g
       style="display:inline"
       display="inline"
       id="g382"><path
         d="m 147.641,96.157 0,125.663 90.312,0 35.324,29.646 0.027,-155.309 -125.663,0 z m 119.992,122.826 -0.016,20.331 -27.6,-23.164 -86.707,0 0,-114.323 114.324,0 -0.001,117.156 z"
         id="path384"
         inkscape:connector-curvature="0" /><path
         d="m 209.82,175.453 c -4.079,0 -6.833,2.116 -6.833,5.251 0,3.135 2.754,5.329 6.833,5.329 4.079,0 6.934,-2.194 6.934,-5.329 0,-3.135 -2.856,-5.251 -6.934,-5.251 z"
         id="path386"
         inkscape:connector-curvature="0" /><path
         d="m 194.42,145.438 7.955,0 c 1.122,0 1.836,-0.471 1.836,-1.41 0.407,-3.84 2.447,-6.113 6.322,-6.113 4.283,0 6.015,2.586 6.015,5.563 0,9.17 -12.746,9.953 -12.746,24.766 l 0,1.959 c 0,0.861 0.714,1.332 1.835,1.332 l 8.26,0 c 1.121,0 1.836,-0.471 1.836,-1.332 l 0,-2.038 c 0,-11.05 12.543,-12.46 12.543,-25.234 0,-8.072 -7.344,-13.479 -18.152,-13.479 -9.892,0 -16.826,5.722 -17.438,14.577 -0.1,0.939 0.613,1.409 1.734,1.409 z"
         id="path388"
         inkscape:connector-curvature="0" /></g></g><g
     style="display:none"
     display="none"
     id="g390"
     transform="translate(-147.642,-96.155)"><g
       style="display:inline"
       display="inline"
       id="g392"><path
         d="m 147.641,96.157 0,125.663 90.312,0 35.324,29.646 0.027,-155.309 -125.663,0 z m 119.992,122.826 -0.016,20.331 -27.6,-23.164 -86.707,0 0,-114.323 114.324,0 -0.001,117.156 z"
         id="path394"
         inkscape:connector-curvature="0" /><path
         d="m 206.559,172.064 7.742,0 c 1.135,0 1.701,-0.482 1.701,-1.448 l 0,-40.15 c 0,-0.885 -0.566,-1.367 -1.701,-1.367 l -7.742,0 c -1.133,0 -1.699,0.482 -1.699,1.367 l 0,40.15 c 0,0.966 0.566,1.448 1.699,1.448 z"
         id="path396"
         inkscape:connector-curvature="0" /><path
         d="m 210.43,186.386 c 3.777,0 6.419,-2.252 6.419,-5.471 0,-3.219 -2.643,-5.391 -6.419,-5.391 -3.777,0 -6.326,2.172 -6.326,5.391 0,3.219 2.549,5.471 6.326,5.471 z"
         id="path398"
         inkscape:connector-curvature="0" /></g></g><g
     style="display:none"
     display="none"
     id="g400"
     transform="translate(-147.642,-96.155)"><g
       style="display:inline"
       display="inline"
       id="g402"><path
         d="m 210.473,251.135 -17.846,-28.982 -24.063,0 c -11.536,0 -20.922,-9.387 -20.922,-20.922 l 0,-83.821 c 0,-11.535 9.386,-20.921 20.922,-20.921 l 83.82,0 c 11.535,0 20.92,9.386 20.92,20.921 l 0,83.821 c 0,11.535 -9.385,20.922 -20.92,20.922 l -24.064,0 -17.847,28.982 z m -41.91,-148.976 c -8.41,0 -15.252,6.842 -15.252,15.251 l 0,83.821 c 0,8.41 6.842,15.252 15.252,15.252 l 27.231,0 14.678,23.84 14.681,-23.84 27.23,0 c 8.409,0 15.25,-6.842 15.25,-15.252 l 0,-83.821 c 0,-8.409 -6.841,-15.251 -15.25,-15.251 l -83.82,0 z"
         id="path404"
         inkscape:connector-curvature="0" /></g></g><g
     style="display:none"
     display="none"
     id="g406"
     transform="translate(-147.642,-96.155)"><g
       style="display:inline"
       display="inline"
       id="g408"><path
         d="m 252.384,96.489 -83.82,0 c -11.536,0 -20.922,9.386 -20.922,20.921 l 0,83.821 c 0,11.535 9.386,20.922 20.922,20.922 l 24.063,0 17.846,28.982 17.847,-28.982 24.064,0 c 11.535,0 20.92,-9.387 20.92,-20.922 l 0,-83.821 c 0,-11.535 -9.385,-20.921 -20.92,-20.921 z m 15.25,104.741 c 0,8.41 -6.841,15.252 -15.25,15.252 l -27.23,0 -14.681,23.84 -14.678,-23.84 -27.231,0 c -8.41,0 -15.252,-6.842 -15.252,-15.252 l 0,-83.82 c 0,-8.409 6.842,-15.251 15.252,-15.251 l 83.82,0 c 8.409,0 15.25,6.842 15.25,15.251 l 0,83.82 z"
         id="path410"
         inkscape:connector-curvature="0" /><circle
         cx="178.855"
         cy="159.321"
         r="8.9659996"
         id="circle412" /><circle
         cx="207.64101"
         cy="159.321"
         r="8.9659996"
         id="circle414" /><circle
         cx="236.427"
         cy="159.321"
         r="8.9659996"
         id="circle416" /></g></g><g
     style="display:none"
     display="none"
     id="g418"
     transform="translate(-147.642,-96.155)"><g
       style="display:inline"
       display="inline"
       id="g420"><path
         d="m 252.384,96.489 -83.82,0 c -11.536,0 -20.922,9.386 -20.922,20.921 l 0,83.821 c 0,11.535 9.386,20.922 20.922,20.922 l 24.063,0 17.846,28.982 17.847,-28.982 24.064,0 c 11.535,0 20.92,-9.387 20.92,-20.922 l 0,-83.821 c 0,-11.535 -9.385,-20.921 -20.92,-20.921 z m 15.25,104.741 c 0,8.41 -6.841,15.252 -15.25,15.252 l -27.23,0 -14.681,23.84 -14.678,-23.84 -27.231,0 c -8.41,0 -15.252,-6.842 -15.252,-15.252 l 0,-83.82 c 0,-8.409 6.842,-15.251 15.252,-15.251 l 83.82,0 c 8.409,0 15.25,6.842 15.25,15.251 l 0,83.82 z"
         id="path422"
         inkscape:connector-curvature="0" /><path
         d="m 240.115,136.371 -64.939,0 c -2.656,0 -4.81,2.023 -4.81,4.52 0,2.497 2.153,4.521 4.81,4.521 l 64.939,0 c 2.656,0 4.81,-2.024 4.81,-4.521 0,-2.497 -2.154,-4.52 -4.81,-4.52 z"
         id="path424"
         inkscape:connector-curvature="0" /><path
         d="m 240.115,153.371 -64.939,0 c -2.656,0 -4.81,2.023 -4.81,4.52 0,2.497 2.153,4.521 4.81,4.521 l 64.939,0 c 2.656,0 4.81,-2.024 4.81,-4.521 0,-2.497 -2.154,-4.52 -4.81,-4.52 z"
         id="path426"
         inkscape:connector-curvature="0" /><path
         d="m 240.115,170.371 -64.939,0 c -2.656,0 -4.81,2.023 -4.81,4.52 0,2.497 2.153,4.522 4.81,4.522 l 64.939,0 c 2.656,0 4.81,-2.025 4.81,-4.522 0,-2.497 -2.154,-4.52 -4.81,-4.52 z"
         id="path428"
         inkscape:connector-curvature="0" /></g></g><g
     style="display:none"
     display="none"
     id="g430"
     transform="translate(-147.642,-96.155)"><g
       style="display:inline"
       display="inline"
       id="g432"><path
         d="m 252.384,96.489 -83.82,0 c -11.536,0 -20.922,9.386 -20.922,20.921 l 0,83.821 c 0,11.535 9.386,20.922 20.922,20.922 l 24.063,0 17.846,28.982 17.847,-28.982 24.064,0 c 11.535,0 20.92,-9.387 20.92,-20.922 l 0,-83.821 c 0,-11.535 -9.385,-20.921 -20.92,-20.921 z m 15.25,104.741 c 0,8.41 -6.841,15.252 -15.25,15.252 l -27.23,0 -14.681,23.84 -14.678,-23.84 -27.231,0 c -8.41,0 -15.252,-6.842 -15.252,-15.252 l 0,-83.82 c 0,-8.409 6.842,-15.251 15.252,-15.251 l 83.82,0 c 8.409,0 15.25,6.842 15.25,15.251 l 0,83.82 z"
         id="path434"
         inkscape:connector-curvature="0" /><path
         d="m 234.011,133.572 c -1.765,-1.766 -4.72,-1.674 -6.598,0.204 l -19.763,19.763 -19.763,-19.763 c -1.878,-1.878 -4.833,-1.97 -6.598,-0.204 -1.766,1.765 -1.674,4.719 0.204,6.598 l 19.764,19.762 -19.764,19.764 c -1.878,1.877 -1.97,4.832 -0.204,6.598 1.765,1.766 4.72,1.674 6.598,-0.205 l 19.763,-19.763 19.763,19.763 c 1.878,1.879 4.833,1.971 6.598,0.205 1.766,-1.766 1.674,-4.721 -0.204,-6.598 l -19.764,-19.764 19.764,-19.762 c 1.878,-1.879 1.969,-4.834 0.204,-6.598 z"
         id="path436"
         inkscape:connector-curvature="0" /></g></g><g
     style="display:none"
     display="none"
     id="g438"
     transform="translate(-147.642,-96.155)"><g
       style="display:inline"
       display="inline"
       id="g440"><path
         d="m 252.384,96.489 -83.82,0 c -11.536,0 -20.922,9.386 -20.922,20.921 l 0,83.821 c 0,11.535 9.386,20.922 20.922,20.922 l 24.063,0 17.846,28.982 17.847,-28.982 24.064,0 c 11.535,0 20.92,-9.387 20.92,-20.922 l 0,-83.821 c 0,-11.535 -9.385,-20.921 -20.92,-20.921 z m 15.25,104.741 c 0,8.41 -6.841,15.252 -15.25,15.252 l -27.23,0 -14.681,23.84 -14.678,-23.84 -27.231,0 c -8.41,0 -15.252,-6.842 -15.252,-15.252 l 0,-83.82 c 0,-8.409 6.842,-15.251 15.252,-15.251 l 83.82,0 c 8.409,0 15.25,6.842 15.25,15.251 l 0,83.82 z"
         id="path442"
         inkscape:connector-curvature="0" /><path
         d="m 237.738,133.599 -41.417,42.235 -18.971,-21.093 c -1.728,-1.919 -4.501,-2.072 -6.195,-0.346 -1.694,1.729 -1.667,4.683 0.061,6.602 l 21.47,23.872 c 0.783,0.869 1.781,1.355 2.796,1.49 0.078,0.016 0.157,0.023 0.235,0.037 0.039,0.002 0.078,0.008 0.117,0.01 1.291,0.162 2.67,-0.275 3.721,-1.346 l 44.063,-44.934 c 1.803,-1.838 1.947,-4.789 0.324,-6.592 -1.624,-1.801 -4.401,-1.773 -6.204,0.065 z"
         id="path444"
         inkscape:connector-curvature="0" /></g></g><g
     style="display:none"
     display="none"
     id="g446"
     transform="translate(-147.642,-96.155)"><g
       style="display:inline"
       display="inline"
       id="g448"><path
         d="m 252.384,96.489 -83.82,0 c -11.536,0 -20.922,9.386 -20.922,20.921 l 0,83.821 c 0,11.535 9.386,20.922 20.922,20.922 l 24.063,0 17.846,28.982 17.847,-28.982 24.064,0 c 11.535,0 20.92,-9.387 20.92,-20.922 l 0,-83.821 c 0,-11.535 -9.385,-20.921 -20.92,-20.921 z m 15.25,104.741 c 0,8.41 -6.841,15.252 -15.25,15.252 l -27.23,0 -14.681,23.84 -14.678,-23.84 -27.231,0 c -8.41,0 -15.252,-6.842 -15.252,-15.252 l 0,-83.82 c 0,-8.409 6.842,-15.251 15.252,-15.251 l 83.82,0 c 8.409,0 15.25,6.842 15.25,15.251 l 0,83.82 z"
         id="path450"
         inkscape:connector-curvature="0" /><path
         d="m 207.002,177.031 c -4.079,0 -6.832,2.117 -6.832,5.252 0,3.135 2.753,5.328 6.832,5.328 4.079,0 6.934,-2.193 6.934,-5.328 0,-3.135 -2.855,-5.252 -6.934,-5.252 z"
         id="path452"
         inkscape:connector-curvature="0" /><path
         d="m 207.309,131.03 c -9.893,0 -16.826,5.722 -17.438,14.577 -0.102,0.939 0.612,1.41 1.733,1.41 l 7.955,0 c 1.121,0 1.835,-0.471 1.835,-1.41 0.407,-3.84 2.448,-6.113 6.323,-6.113 4.283,0 6.016,2.586 6.016,5.563 0,9.17 -12.747,9.952 -12.747,24.765 l 0,1.959 c 0,0.862 0.714,1.333 1.835,1.333 l 8.261,0 c 1.121,0 1.835,-0.471 1.835,-1.333 l 0,-2.037 c 0,-11.05 12.543,-12.461 12.543,-25.234 -0.001,-8.073 -7.343,-13.48 -18.151,-13.48 z"
         id="path454"
         inkscape:connector-curvature="0" /></g></g><g
     style="display:none"
     display="none"
     id="g456"
     transform="translate(-147.642,-96.155)"><g
       style="display:inline"
       display="inline"
       id="g458"><path
         d="m 252.384,96.489 -83.82,0 c -11.536,0 -20.922,9.386 -20.922,20.921 l 0,83.821 c 0,11.535 9.386,20.922 20.922,20.922 l 24.063,0 17.846,28.982 17.847,-28.982 24.064,0 c 11.535,0 20.92,-9.387 20.92,-20.922 l 0,-83.821 c 0,-11.535 -9.385,-20.921 -20.92,-20.921 z m 15.25,104.741 c 0,8.41 -6.841,15.252 -15.25,15.252 l -27.23,0 -14.681,23.84 -14.678,-23.84 -27.231,0 c -8.41,0 -15.252,-6.842 -15.252,-15.252 l 0,-83.82 c 0,-8.409 6.842,-15.251 15.252,-15.251 l 83.82,0 c 8.409,0 15.25,6.842 15.25,15.251 l 0,83.82 z"
         id="path460"
         inkscape:connector-curvature="0" /><path
         d="m 203.746,172.884 7.742,0 c 1.133,0 1.699,-0.482 1.699,-1.447 l 0,-40.151 c 0,-0.885 -0.566,-1.367 -1.699,-1.367 l -7.742,0 c -1.134,0 -1.699,0.482 -1.699,1.367 l 0,40.151 c 0,0.965 0.565,1.447 1.699,1.447 z"
         id="path462"
         inkscape:connector-curvature="0" /><path
         d="m 207.617,176.344 c -3.777,0 -6.327,2.174 -6.327,5.393 0,3.219 2.55,5.471 6.327,5.471 3.776,0 6.42,-2.252 6.42,-5.471 0,-3.219 -2.643,-5.393 -6.42,-5.393 z"
         id="path464"
         inkscape:connector-curvature="0" /></g></g><g
     style="display:none"
     display="none"
     id="g466"
     transform="translate(-147.642,-96.155)"><g
       style="display:inline"
       display="inline"
       id="g468"><path
         d="m 210.472,251.131 -17.843,-28.977 -44.988,0 0,-125.662 125.664,0 0,125.663 -44.99,0 -17.843,28.976 z m -57.161,-34.647 42.485,0 14.676,23.834 14.677,-23.834 42.484,0 0.002,-114.323 -114.324,0 0,114.323 z"
         id="path470"
         inkscape:connector-curvature="0" /></g></g><g
     style="display:none"
     display="none"
     id="g472"
     transform="translate(-147.642,-96.155)"><g
       style="display:inline"
       display="inline"
       id="g474"><path
         d="m 147.641,96.492 0,125.663 44.988,0 17.843,28.977 17.843,-28.977 44.99,0 0,-125.663 -125.664,0 z m 119.992,119.992 -42.484,0 -14.677,23.834 -14.676,-23.834 -42.485,0 0,-114.322 114.324,0 -0.002,114.322 z"
         id="path476"
         inkscape:connector-curvature="0" /><circle
         cx="178.854"
         cy="159.388"
         r="8.9659996"
         id="circle478" /><circle
         cx="207.64"
         cy="159.388"
         r="8.9659996"
         id="circle480" /><circle
         cx="236.42599"
         cy="159.388"
         r="8.9659996"
         id="circle482" /></g></g><g
     style="display:none"
     display="none"
     id="g484"
     transform="translate(-147.642,-96.155)"><g
       style="display:inline"
       display="inline"
       id="g486"><path
         d="m 147.641,96.492 0,125.663 44.988,0 17.843,28.977 17.843,-28.977 44.99,0 0,-125.663 -125.664,0 z m 119.992,119.992 -42.484,0 -14.677,23.834 -14.676,-23.834 -42.485,0 0,-114.322 114.324,0 -0.002,114.322 z"
         id="path488"
         inkscape:connector-curvature="0" /><path
         d="m 175.175,145.479 64.939,0 c 2.656,0 4.81,-2.024 4.81,-4.521 0,-2.496 -2.153,-4.52 -4.81,-4.52 l -64.939,0 c -2.656,0 -4.81,2.023 -4.81,4.52 0,2.497 2.154,4.521 4.81,4.521 z"
         id="path490"
         inkscape:connector-curvature="0" /><path
         d="m 175.175,162.479 64.939,0 c 2.656,0 4.81,-2.024 4.81,-4.521 0,-2.496 -2.153,-4.52 -4.81,-4.52 l -64.939,0 c -2.656,0 -4.81,2.023 -4.81,4.52 0,2.497 2.154,4.521 4.81,4.521 z"
         id="path492"
         inkscape:connector-curvature="0" /><path
         d="m 175.175,179.479 64.939,0 c 2.656,0 4.81,-2.023 4.81,-4.521 0,-2.496 -2.153,-4.52 -4.81,-4.52 l -64.939,0 c -2.656,0 -4.81,2.023 -4.81,4.52 0,2.497 2.154,4.521 4.81,4.521 z"
         id="path494"
         inkscape:connector-curvature="0" /></g></g><g
     style="display:none"
     display="none"
     id="g496"
     transform="translate(-147.642,-96.155)"><g
       style="display:inline"
       display="inline"
       id="g498"><path
         d="m 147.641,96.492 0,125.663 44.988,0 17.843,28.977 17.843,-28.977 44.99,0 0,-125.663 -125.664,0 z m 119.992,119.992 -42.484,0 -14.677,23.834 -14.676,-23.834 -42.485,0 0,-114.322 114.324,0 -0.002,114.322 z"
         id="path500"
         inkscape:connector-curvature="0" /><path
         d="m 181.289,186.359 c 1.765,1.766 4.72,1.674 6.598,-0.205 l 19.763,-19.762 19.763,19.762 c 1.878,1.879 4.833,1.971 6.598,0.205 1.766,-1.766 1.674,-4.719 -0.204,-6.598 l -19.764,-19.763 19.764,-19.762 c 1.878,-1.879 1.97,-4.833 0.204,-6.598 -1.765,-1.766 -4.72,-1.674 -6.598,0.204 l -19.763,19.763 -19.763,-19.763 c -1.878,-1.878 -4.833,-1.97 -6.598,-0.204 -1.766,1.765 -1.674,4.719 0.204,6.598 l 19.764,19.762 -19.764,19.763 c -1.878,1.88 -1.97,4.833 -0.204,6.598 z"
         id="path502"
         inkscape:connector-curvature="0" /></g></g><g
     style="display:none"
     display="none"
     id="g504"
     transform="translate(-147.642,-96.155)"><g
       style="display:inline"
       display="inline"
       id="g506"><path
         d="m 147.641,96.492 0,125.663 44.988,0 17.843,28.977 17.843,-28.977 44.99,0 0,-125.663 -125.664,0 z m 119.992,119.992 -42.484,0 -14.677,23.834 -14.676,-23.834 -42.485,0 0,-114.322 114.324,0 -0.002,114.322 z"
         id="path508"
         inkscape:connector-curvature="0" /><path
         d="m 192.685,184.936 c 0.783,0.869 1.781,1.355 2.796,1.49 0.078,0.018 0.157,0.025 0.235,0.037 0.039,0.002 0.078,0.01 0.117,0.01 1.291,0.164 2.67,-0.273 3.721,-1.346 l 44.063,-44.933 c 1.803,-1.838 1.947,-4.789 0.324,-6.592 -1.623,-1.802 -4.4,-1.773 -6.203,0.064 l -41.417,42.235 -18.971,-21.093 c -1.728,-1.919 -4.501,-2.072 -6.195,-0.346 -1.694,1.729 -1.667,4.683 0.061,6.602 l 21.469,23.872 z"
         id="path510"
         inkscape:connector-curvature="0" /></g></g><g
     style="display:none"
     display="none"
     id="g512"
     transform="translate(-147.642,-96.155)"><g
       style="display:inline"
       display="inline"
       id="g514"><path
         d="m 147.641,96.492 0,125.663 44.988,0 17.843,28.977 17.843,-28.977 44.99,0 0,-125.663 -125.664,0 z m 119.992,119.992 -42.484,0 -14.677,23.834 -14.676,-23.834 -42.485,0 0,-114.322 114.324,0 -0.002,114.322 z"
         id="path516"
         inkscape:connector-curvature="0" /><path
         d="m 207.001,177.1 c -4.079,0 -6.832,2.115 -6.832,5.25 0,3.135 2.753,5.328 6.832,5.328 4.079,0 6.934,-2.193 6.934,-5.328 0,-3.135 -2.855,-5.25 -6.934,-5.25 z"
         id="path518"
         inkscape:connector-curvature="0" /><path
         d="m 191.603,147.084 7.955,0 c 1.121,0 1.835,-0.471 1.835,-1.41 0.407,-3.84 2.448,-6.113 6.323,-6.113 4.283,0 6.016,2.586 6.016,5.563 0,9.17 -12.747,9.952 -12.747,24.765 l 0,1.959 c 0,0.862 0.714,1.333 1.835,1.333 l 8.261,0 c 1.121,0 1.835,-0.471 1.835,-1.333 l 0,-2.037 c 0,-11.05 12.543,-12.461 12.543,-25.234 0,-8.072 -7.342,-13.479 -18.15,-13.479 -9.893,0 -16.826,5.722 -17.438,14.577 -0.103,0.939 0.61,1.409 1.732,1.409 z"
         id="path520"
         inkscape:connector-curvature="0" /></g></g><g
     style="display:none"
     display="none"
     id="g522"
     transform="translate(-147.642,-96.155)"><g
       style="display:inline"
       display="inline"
       id="g524"><path
         d="m 147.641,96.492 0,125.663 44.988,0 17.843,28.977 17.843,-28.977 44.99,0 0,-125.663 -125.664,0 z m 119.992,119.992 -42.484,0 -14.677,23.834 -14.676,-23.834 -42.485,0 0,-114.322 114.324,0 -0.002,114.322 z"
         id="path526"
         inkscape:connector-curvature="0" /><path
         d="m 203.745,172.952 7.742,0 c 1.133,0 1.699,-0.482 1.699,-1.447 l 0,-40.151 c 0,-0.885 -0.566,-1.367 -1.699,-1.367 l -7.742,0 c -1.134,0 -1.699,0.482 -1.699,1.367 l 0,40.151 c 0,0.964 0.565,1.447 1.699,1.447 z"
         id="path528"
         inkscape:connector-curvature="0" /><path
         d="m 207.616,187.273 c 3.776,0 6.42,-2.252 6.42,-5.471 0,-3.219 -2.644,-5.391 -6.42,-5.391 -3.777,0 -6.327,2.172 -6.327,5.391 0,3.219 2.55,5.471 6.327,5.471 z"
         id="path530"
         inkscape:connector-curvature="0" /></g></g><g
     style="display:none"
     display="none"
     id="g532"
     transform="translate(-147.642,-96.155)"><g
       style="display:inline"
       display="inline"
       id="g534"><path
         d="m 191.923,250.635 -0.021,-27.982 -23.338,0 c -11.536,0 -20.922,-9.387 -20.922,-20.922 l 0,-83.821 c 0,-11.536 9.386,-20.921 20.922,-20.921 l 83.819,0 c 11.535,0 20.921,9.385 20.921,20.921 l 0,83.821 c 0,11.535 -9.386,20.922 -20.921,20.922 l -27.118,0 -33.342,27.982 z m -23.36,-147.976 c -8.41,0 -15.252,6.842 -15.252,15.251 l 0,83.821 c 0,8.41 6.842,15.252 15.252,15.252 l 29.004,0 0.016,21.5 25.617,-21.5 29.183,0 c 8.409,0 15.251,-6.842 15.251,-15.252 l 0,-83.821 c 0,-8.409 -6.842,-15.251 -15.251,-15.251 l -83.82,0 z"
         id="path536"
         inkscape:connector-curvature="0" /></g></g><g
     style="display:none"
     display="none"
     id="g538"
     transform="translate(-147.642,-96.155)"><g
       style="display:inline"
       display="inline"
       id="g540"><circle
         cx="181.66701"
         cy="159.821"
         r="8.9659996"
         id="circle542" /><circle
         cx="210.452"
         cy="159.821"
         r="8.9659996"
         id="circle544" /><circle
         cx="239.23801"
         cy="159.821"
         r="8.9659996"
         id="circle546" /><path
         d="m 252.383,96.989 -83.819,0 c -11.536,0 -20.922,9.385 -20.922,20.921 l 0,83.821 c 0,11.535 9.386,20.922 20.922,20.922 l 23.338,0 0.021,27.982 33.342,-27.982 27.118,0 c 11.535,0 20.921,-9.387 20.921,-20.922 l 0,-83.821 c 0,-11.536 -9.386,-20.921 -20.921,-20.921 z m 15.251,104.741 c 0,8.41 -6.842,15.252 -15.251,15.252 l -29.183,0 -25.617,21.5 -0.016,-21.5 -29.004,0 c -8.41,0 -15.252,-6.842 -15.252,-15.252 l 0,-83.82 c 0,-8.409 6.842,-15.251 15.252,-15.251 l 83.819,0 c 8.409,0 15.251,6.842 15.251,15.251 l 0,83.82 z"
         id="path548"
         inkscape:connector-curvature="0" /></g></g><g
     style="display:none"
     display="none"
     id="g550"
     transform="translate(-147.642,-96.155)"><g
       style="display:inline"
       display="inline"
       id="g552"><path
         d="m 242.925,136.871 -64.939,0 c -2.656,0 -4.81,2.023 -4.81,4.52 0,2.497 2.153,4.521 4.81,4.521 l 64.939,0 c 2.656,0 4.81,-2.024 4.81,-4.521 -0.001,-2.497 -2.154,-4.52 -4.81,-4.52 z"
         id="path554"
         inkscape:connector-curvature="0" /><path
         d="m 242.925,153.871 -64.939,0 c -2.656,0 -4.81,2.023 -4.81,4.52 0,2.497 2.153,4.521 4.81,4.521 l 64.939,0 c 2.656,0 4.81,-2.024 4.81,-4.521 -0.001,-2.497 -2.154,-4.52 -4.81,-4.52 z"
         id="path556"
         inkscape:connector-curvature="0" /><path
         d="m 242.925,170.871 -64.939,0 c -2.656,0 -4.81,2.023 -4.81,4.52 0,2.497 2.153,4.522 4.81,4.522 l 64.939,0 c 2.656,0 4.81,-2.025 4.81,-4.522 -0.001,-2.497 -2.154,-4.52 -4.81,-4.52 z"
         id="path558"
         inkscape:connector-curvature="0" /><path
         d="m 252.383,96.989 -83.819,0 c -11.536,0 -20.922,9.385 -20.922,20.921 l 0,83.821 c 0,11.535 9.386,20.922 20.922,20.922 l 23.338,0 0.021,27.982 33.342,-27.982 27.118,0 c 11.535,0 20.921,-9.387 20.921,-20.922 l 0,-83.821 c 0,-11.536 -9.386,-20.921 -20.921,-20.921 z m 15.251,104.741 c 0,8.41 -6.842,15.252 -15.251,15.252 l -29.183,0 -25.617,21.5 -0.016,-21.5 -29.004,0 c -8.41,0 -15.252,-6.842 -15.252,-15.252 l 0,-83.82 c 0,-8.409 6.842,-15.251 15.252,-15.251 l 83.819,0 c 8.409,0 15.251,6.842 15.251,15.251 l 0,83.82 z"
         id="path560"
         inkscape:connector-curvature="0" /></g></g><g
     style="display:none"
     display="none"
     id="g562"
     transform="translate(-147.642,-96.155)"><g
       style="display:inline"
       display="inline"
       id="g564"><path
         d="m 236.818,134.072 c -1.765,-1.766 -4.72,-1.674 -6.598,0.204 l -19.763,19.763 -19.763,-19.763 c -1.878,-1.878 -4.833,-1.97 -6.598,-0.204 -1.766,1.765 -1.674,4.719 0.204,6.598 l 19.764,19.762 -19.764,19.764 c -1.878,1.877 -1.97,4.832 -0.204,6.598 1.765,1.766 4.72,1.674 6.598,-0.205 l 19.763,-19.763 19.763,19.763 c 1.878,1.879 4.833,1.971 6.598,0.205 1.766,-1.766 1.674,-4.721 -0.204,-6.598 L 216.85,160.432 236.614,140.67 c 1.878,-1.879 1.97,-4.834 0.204,-6.598 z"
         id="path566"
         inkscape:connector-curvature="0" /><path
         d="m 252.383,96.989 -83.819,0 c -11.536,0 -20.922,9.385 -20.922,20.921 l 0,83.821 c 0,11.535 9.386,20.922 20.922,20.922 l 23.338,0 0.021,27.982 33.342,-27.982 27.118,0 c 11.535,0 20.921,-9.387 20.921,-20.922 l 0,-83.821 c 0,-11.536 -9.386,-20.921 -20.921,-20.921 z m 15.251,104.741 c 0,8.41 -6.842,15.252 -15.251,15.252 l -29.183,0 -25.617,21.5 -0.016,-21.5 -29.004,0 c -8.41,0 -15.252,-6.842 -15.252,-15.252 l 0,-83.82 c 0,-8.409 6.842,-15.251 15.252,-15.251 l 83.819,0 c 8.409,0 15.251,6.842 15.251,15.251 l 0,83.82 z"
         id="path568"
         inkscape:connector-curvature="0" /></g></g><g
     style="display:none"
     display="none"
     id="g570"
     transform="translate(-147.642,-96.155)"><g
       style="display:inline"
       display="inline"
       id="g572"><path
         d="m 240.544,134.099 -41.417,42.235 -18.971,-21.092 c -1.728,-1.919 -4.501,-2.072 -6.195,-0.346 -1.694,1.729 -1.667,4.683 0.061,6.602 l 21.47,23.872 c 0.783,0.869 1.781,1.355 2.796,1.49 0.078,0.016 0.157,0.023 0.235,0.037 0.039,0.002 0.078,0.008 0.117,0.01 1.291,0.162 2.67,-0.275 3.721,-1.346 l 44.063,-44.934 c 1.803,-1.838 1.947,-4.789 0.324,-6.592 -1.624,-1.802 -4.401,-1.774 -6.204,0.064 z"
         id="path574"
         inkscape:connector-curvature="0" /><path
         d="m 252.383,96.989 -83.819,0 c -11.536,0 -20.922,9.385 -20.922,20.921 l 0,83.821 c 0,11.535 9.386,20.922 20.922,20.922 l 23.338,0 0.021,27.982 33.342,-27.982 27.118,0 c 11.535,0 20.921,-9.387 20.921,-20.922 l 0,-83.821 c 0,-11.536 -9.386,-20.921 -20.921,-20.921 z m 15.251,104.741 c 0,8.41 -6.842,15.252 -15.251,15.252 l -29.183,0 -25.617,21.5 -0.016,-21.5 -29.004,0 c -8.41,0 -15.252,-6.842 -15.252,-15.252 l 0,-83.82 c 0,-8.409 6.842,-15.251 15.252,-15.251 l 83.819,0 c 8.409,0 15.251,6.842 15.251,15.251 l 0,83.82 z"
         id="path576"
         inkscape:connector-curvature="0" /></g></g><g
     style="display:none"
     display="none"
     id="g578"
     transform="translate(-147.642,-96.155)"><g
       style="display:inline"
       display="inline"
       id="g580"><path
         d="m 209.806,177.531 c -4.079,0 -6.832,2.117 -6.832,5.252 0,3.135 2.753,5.328 6.832,5.328 4.079,0 6.934,-2.193 6.934,-5.328 0,-3.135 -2.855,-5.252 -6.934,-5.252 z"
         id="path582"
         inkscape:connector-curvature="0" /><path
         d="m 210.112,131.53 c -9.893,0 -16.826,5.722 -17.438,14.577 -0.102,0.939 0.612,1.41 1.733,1.41 l 7.955,0 c 1.121,0 1.835,-0.471 1.835,-1.41 0.407,-3.84 2.448,-6.113 6.323,-6.113 4.283,0 6.016,2.586 6.016,5.563 0,9.17 -12.747,9.952 -12.747,24.765 l 0,1.959 c 0,0.862 0.714,1.333 1.835,1.333 l 8.261,0 c 1.121,0 1.835,-0.471 1.835,-1.333 l 0,-2.037 c 0,-11.05 12.543,-12.461 12.543,-25.234 0,-8.073 -7.342,-13.48 -18.151,-13.48 z"
         id="path584"
         inkscape:connector-curvature="0" /><path
         d="m 252.383,96.989 -83.819,0 c -11.536,0 -20.922,9.385 -20.922,20.921 l 0,83.821 c 0,11.535 9.386,20.922 20.922,20.922 l 23.338,0 0.021,27.982 33.342,-27.982 27.118,0 c 11.535,0 20.921,-9.387 20.921,-20.922 l 0,-83.821 c 0,-11.536 -9.386,-20.921 -20.921,-20.921 z m 15.251,104.741 c 0,8.41 -6.842,15.252 -15.251,15.252 l -29.183,0 -25.617,21.5 -0.016,-21.5 -29.004,0 c -8.41,0 -15.252,-6.842 -15.252,-15.252 l 0,-83.82 c 0,-8.409 6.842,-15.251 15.252,-15.251 l 83.819,0 c 8.409,0 15.251,6.842 15.251,15.251 l 0,83.82 z"
         id="path586"
         inkscape:connector-curvature="0" /></g></g><g
     style="display:none"
     display="none"
     id="g588"
     transform="translate(-147.642,-96.155)"><g
       style="display:inline"
       display="inline"
       id="g590"><path
         d="m 206.548,173.384 7.742,0 c 1.133,0 1.699,-0.482 1.699,-1.447 l 0,-40.151 c 0,-0.885 -0.566,-1.367 -1.699,-1.367 l -7.742,0 c -1.134,0 -1.699,0.482 -1.699,1.367 l 0,40.151 c 0,0.965 0.565,1.447 1.699,1.447 z"
         id="path592"
         inkscape:connector-curvature="0" /><path
         d="m 210.419,176.844 c -3.777,0 -6.327,2.174 -6.327,5.393 0,3.219 2.55,5.471 6.327,5.471 3.776,0 6.42,-2.252 6.42,-5.471 0,-3.219 -2.644,-5.393 -6.42,-5.393 z"
         id="path594"
         inkscape:connector-curvature="0" /><path
         d="m 252.383,96.989 -83.819,0 c -11.536,0 -20.922,9.385 -20.922,20.921 l 0,83.821 c 0,11.535 9.386,20.922 20.922,20.922 l 23.338,0 0.021,27.982 33.342,-27.982 27.118,0 c 11.535,0 20.921,-9.387 20.921,-20.922 l 0,-83.821 c 0,-11.536 -9.386,-20.921 -20.921,-20.921 z m 15.251,104.741 c 0,8.41 -6.842,15.252 -15.251,15.252 l -29.183,0 -25.617,21.5 -0.016,-21.5 -29.004,0 c -8.41,0 -15.252,-6.842 -15.252,-15.252 l 0,-83.82 c 0,-8.409 6.842,-15.251 15.252,-15.251 l 83.819,0 c 8.409,0 15.251,6.842 15.251,15.251 l 0,83.82 z"
         id="path596"
         inkscape:connector-curvature="0" /></g></g><g
     style="display:none"
     display="none"
     id="g598"
     transform="translate(-147.642,-96.155)"><g
       style="display:inline"
       display="inline"
       id="g600"><path
         d="m 191.922,251.467 -0.022,-29.646 -44.259,0 0,-125.664 125.664,0 0,125.663 -46.059,0 -35.324,29.647 z m -38.611,-35.317 44.253,0 0.019,23.164 27.6,-23.164 42.451,0 0.002,-114.324 -114.325,0 0,114.324 z"
         id="path602"
         inkscape:connector-curvature="0" /></g></g><g
     style="display:none"
     display="none"
     id="g604"
     transform="translate(-147.642,-96.155)"><g
       style="display:inline"
       display="inline"
       id="g606"><circle
         cx="181.666"
         cy="158.989"
         r="8.9659996"
         id="circle608" /><circle
         cx="210.451"
         cy="158.989"
         r="8.9659996"
         id="circle610" /><circle
         cx="239.237"
         cy="158.989"
         r="8.9659996"
         id="circle612" /><path
         d="m 147.641,96.157 0,125.663 44.259,0 0.022,29.646 35.324,-29.646 46.059,0 0,-125.663 -125.664,0 z m 119.992,119.993 -42.451,0 -27.6,23.164 -0.019,-23.164 -44.253,0 0,-114.323 114.324,0 -0.001,114.323 z"
         id="path614"
         inkscape:connector-curvature="0" /></g></g><g
     style="display:none"
     display="none"
     id="g616"
     transform="translate(-147.642,-96.155)"><g
       style="display:inline"
       display="inline"
       id="g618"><path
         d="m 177.984,145.08 64.939,0 c 2.656,0 4.81,-2.024 4.81,-4.521 0,-2.496 -2.153,-4.52 -4.81,-4.52 l -64.939,0 c -2.656,0 -4.81,2.023 -4.81,4.52 0.001,2.496 2.154,4.521 4.81,4.521 z"
         id="path620"
         inkscape:connector-curvature="0" /><path
         d="m 177.984,162.08 64.939,0 c 2.656,0 4.81,-2.024 4.81,-4.521 0,-2.496 -2.153,-4.52 -4.81,-4.52 l -64.939,0 c -2.656,0 -4.81,2.023 -4.81,4.52 0.001,2.496 2.154,4.521 4.81,4.521 z"
         id="path622"
         inkscape:connector-curvature="0" /><path
         d="m 177.984,179.08 64.939,0 c 2.656,0 4.81,-2.025 4.81,-4.522 0,-2.496 -2.153,-4.52 -4.81,-4.52 l -64.939,0 c -2.656,0 -4.81,2.023 -4.81,4.52 0.001,2.497 2.154,4.522 4.81,4.522 z"
         id="path624"
         inkscape:connector-curvature="0" /><path
         d="m 147.641,96.157 0,125.663 44.259,0 0.022,29.646 35.324,-29.646 46.059,0 0,-125.663 -125.664,0 z m 119.992,119.993 -42.451,0 -27.6,23.164 -0.019,-23.164 -44.253,0 0,-114.323 114.324,0 -0.001,114.323 z"
         id="path626"
         inkscape:connector-curvature="0" /></g></g><g
     style="display:none"
     display="none"
     id="g628"
     transform="translate(-147.642,-96.155)"><g
       style="display:inline"
       display="inline"
       id="g630"><path
         d="m 184.097,185.961 c 1.765,1.766 4.72,1.674 6.598,-0.205 l 19.763,-19.763 19.763,19.763 c 1.878,1.879 4.833,1.971 6.598,0.205 1.766,-1.766 1.674,-4.721 -0.204,-6.598 l -19.764,-19.764 19.764,-19.762 c 1.878,-1.879 1.97,-4.833 0.204,-6.598 -1.765,-1.766 -4.72,-1.674 -6.598,0.204 l -19.763,19.763 -19.763,-19.763 c -1.878,-1.878 -4.833,-1.97 -6.598,-0.204 -1.766,1.765 -1.674,4.719 0.204,6.598 l 19.764,19.762 -19.764,19.764 c -1.878,1.877 -1.97,4.832 -0.204,6.598 z"
         id="path632"
         inkscape:connector-curvature="0" /><path
         d="m 147.641,96.157 0,125.663 44.259,0 0.022,29.646 35.324,-29.646 46.059,0 0,-125.663 -125.664,0 z m 119.992,119.993 -42.451,0 -27.6,23.164 -0.019,-23.164 -44.253,0 0,-114.323 114.324,0 -0.001,114.323 z"
         id="path634"
         inkscape:connector-curvature="0" /></g></g><g
     style="display:none"
     display="none"
     id="g636"
     transform="translate(-147.642,-96.155)"><g
       style="display:inline"
       display="inline"
       id="g638"><path
         d="m 195.49,184.537 c 0.783,0.869 1.781,1.355 2.796,1.49 0.078,0.016 0.157,0.023 0.235,0.037 0.039,0.002 0.078,0.008 0.117,0.01 1.291,0.162 2.67,-0.275 3.721,-1.346 l 44.063,-44.934 c 1.803,-1.838 1.947,-4.789 0.324,-6.592 -1.623,-1.802 -4.4,-1.773 -6.203,0.064 l -41.417,42.235 -18.971,-21.093 c -1.728,-1.919 -4.501,-2.072 -6.195,-0.346 -1.694,1.729 -1.667,4.683 0.061,6.602 l 21.469,23.873 z"
         id="path640"
         inkscape:connector-curvature="0" /><path
         d="m 147.641,96.157 0,125.663 44.259,0 0.022,29.646 35.324,-29.646 46.059,0 0,-125.663 -125.664,0 z m 119.992,119.993 -42.451,0 -27.6,23.164 -0.019,-23.164 -44.253,0 0,-114.323 114.324,0 -0.001,114.323 z"
         id="path642"
         inkscape:connector-curvature="0" /></g></g><g
     style="display:none"
     display="none"
     id="g644"
     transform="translate(-147.642,-96.155)"><g
       style="display:inline"
       display="inline"
       id="g646"><path
         d="m 209.805,176.699 c -4.079,0 -6.832,2.117 -6.832,5.252 0,3.135 2.753,5.328 6.832,5.328 4.079,0 6.934,-2.193 6.934,-5.328 0,-3.135 -2.855,-5.252 -6.934,-5.252 z"
         id="path648"
         inkscape:connector-curvature="0" /><path
         d="m 194.406,146.685 7.955,0 c 1.121,0 1.835,-0.471 1.835,-1.41 0.407,-3.84 2.448,-6.113 6.323,-6.113 4.283,0 6.016,2.586 6.016,5.563 0,9.17 -12.747,9.952 -12.747,24.765 l 0,1.959 c 0,0.862 0.714,1.333 1.835,1.333 l 8.261,0 c 1.121,0 1.835,-0.471 1.835,-1.333 l 0,-2.037 c 0,-11.05 12.543,-12.461 12.543,-25.234 0,-8.072 -7.342,-13.479 -18.15,-13.479 -9.893,0 -16.826,5.722 -17.438,14.577 -0.103,0.938 0.611,1.409 1.732,1.409 z"
         id="path650"
         inkscape:connector-curvature="0" /><path
         d="m 147.641,96.157 0,125.663 44.259,0 0.022,29.646 35.324,-29.646 46.059,0 0,-125.663 -125.664,0 z m 119.992,119.993 -42.451,0 -27.6,23.164 -0.019,-23.164 -44.253,0 0,-114.323 114.324,0 -0.001,114.323 z"
         id="path652"
         inkscape:connector-curvature="0" /></g></g><g
     style="display:none"
     display="none"
     id="g654"
     transform="translate(-147.642,-96.155)"><g
       style="display:inline"
       display="inline"
       id="g656"><path
         d="m 206.547,172.552 7.742,0 c 1.133,0 1.699,-0.482 1.699,-1.447 l 0,-40.151 c 0,-0.885 -0.566,-1.367 -1.699,-1.367 l -7.742,0 c -1.134,0 -1.699,0.482 -1.699,1.367 l 0,40.151 c 0,0.965 0.565,1.447 1.699,1.447 z"
         id="path658"
         inkscape:connector-curvature="0" /><path
         d="m 210.418,186.875 c 3.776,0 6.42,-2.252 6.42,-5.471 0,-3.219 -2.644,-5.393 -6.42,-5.393 -3.777,0 -6.327,2.174 -6.327,5.393 0,3.219 2.55,5.471 6.327,5.471 z"
         id="path660"
         inkscape:connector-curvature="0" /><path
         d="m 147.641,96.157 0,125.663 44.259,0 0.022,29.646 35.324,-29.646 46.059,0 0,-125.663 -125.664,0 z m 119.992,119.993 -42.451,0 -27.6,23.164 -0.019,-23.164 -44.253,0 0,-114.323 114.324,0 -0.001,114.323 z"
         id="path662"
         inkscape:connector-curvature="0" /></g></g><g
     style="display:none"
     display="none"
     id="g664"
     transform="translate(-147.642,-96.155)"><g
       style="display:inline"
       display="inline"
       id="g666"><path
         d="m 178.866,249.633 2.972,-4.748 c 0.066,-0.105 6.065,-9.787 8.55,-21.232 l -21.824,0 c -11.536,0 -20.922,-9.385 -20.922,-20.922 l 0,-83.82 c 0,-11.536 9.386,-20.921 20.922,-20.921 l 83.819,0 c 11.535,0 20.921,9.385 20.921,20.921 l 0,83.82 c 0,11.537 -9.386,20.922 -20.921,20.922 l -26.143,0 c -8.153,11.111 -21.818,24.074 -41.789,25.564 l -5.585,0.416 z M 168.563,103.66 c -8.41,0 -15.252,6.842 -15.252,15.251 l 0,83.82 c 0,8.41 6.842,15.252 15.252,15.252 l 28.514,0 -0.484,3.254 c -1.295,8.688 -4.688,16.658 -7.156,21.582 15.572,-3.158 26.445,-14.32 33.039,-23.639 l 0.847,-1.197 29.061,0 c 8.409,0 15.251,-6.842 15.251,-15.252 l 0,-83.82 c 0,-8.409 -6.842,-15.251 -15.251,-15.251 l -83.821,0 z"
         id="path668"
         inkscape:connector-curvature="0" /></g></g><g
     style="display:none"
     display="none"
     id="g670"
     transform="translate(-147.642,-96.155)"><g
       style="display:inline"
       display="inline"
       id="g672"><circle
         cx="181.66701"
         cy="160.82201"
         r="8.9659996"
         id="circle674" /><circle
         cx="210.452"
         cy="160.82201"
         r="8.9659996"
         id="circle676" /><circle
         cx="239.23801"
         cy="160.82201"
         r="8.9659996"
         id="circle678" /><path
         d="m 252.383,97.99 -83.819,0 c -11.536,0 -20.922,9.385 -20.922,20.921 l 0,83.82 c 0,11.537 9.386,20.922 20.922,20.922 l 21.824,0 c -2.484,11.445 -8.483,21.127 -8.55,21.232 l -2.972,4.748 5.585,-0.416 c 19.971,-1.49 33.636,-14.453 41.789,-25.564 l 26.143,0 c 11.535,0 20.921,-9.385 20.921,-20.922 l 0,-83.82 c 0,-11.536 -9.386,-20.921 -20.921,-20.921 z m 15.251,104.74 c 0,8.41 -6.842,15.252 -15.251,15.252 l -29.061,0 -0.847,1.197 c -6.594,9.318 -17.467,20.48 -33.039,23.639 2.468,-4.924 5.861,-12.895 7.156,-21.582 l 0.484,-3.254 -28.514,0 c -8.41,0 -15.252,-6.842 -15.252,-15.252 l 0,-83.82 c 0,-8.409 6.842,-15.251 15.252,-15.251 l 83.819,0 c 8.409,0 15.251,6.842 15.251,15.251 l 0,83.82 z"
         id="path680"
         inkscape:connector-curvature="0" /></g></g><g
     style="display:none"
     display="none"
     id="g682"
     transform="translate(-147.642,-96.155)"><g
       style="display:inline"
       display="inline"
       id="g684"><path
         d="m 242.925,137.872 -64.939,0 c -2.656,0 -4.81,2.023 -4.81,4.52 0,2.497 2.153,4.521 4.81,4.521 l 64.939,0 c 2.656,0 4.81,-2.024 4.81,-4.521 -0.001,-2.497 -2.154,-4.52 -4.81,-4.52 z"
         id="path686"
         inkscape:connector-curvature="0" /><path
         d="m 242.925,154.872 -64.939,0 c -2.656,0 -4.81,2.023 -4.81,4.52 0,2.497 2.153,4.521 4.81,4.521 l 64.939,0 c 2.656,0 4.81,-2.024 4.81,-4.521 -0.001,-2.497 -2.154,-4.52 -4.81,-4.52 z"
         id="path688"
         inkscape:connector-curvature="0" /><path
         d="m 242.925,171.872 -64.939,0 c -2.656,0 -4.81,2.023 -4.81,4.519 0,2.498 2.153,4.521 4.81,4.521 l 64.939,0 c 2.656,0 4.81,-2.023 4.81,-4.521 -0.001,-2.496 -2.154,-4.519 -4.81,-4.519 z"
         id="path690"
         inkscape:connector-curvature="0" /><path
         d="m 252.383,97.99 -83.819,0 c -11.536,0 -20.922,9.385 -20.922,20.921 l 0,83.82 c 0,11.537 9.386,20.922 20.922,20.922 l 21.824,0 c -2.484,11.445 -8.483,21.127 -8.55,21.232 l -2.972,4.748 5.585,-0.416 c 19.971,-1.49 33.636,-14.453 41.789,-25.564 l 26.143,0 c 11.535,0 20.921,-9.385 20.921,-20.922 l 0,-83.82 c 0,-11.536 -9.386,-20.921 -20.921,-20.921 z m 15.251,104.74 c 0,8.41 -6.842,15.252 -15.251,15.252 l -29.061,0 -0.847,1.197 c -6.594,9.318 -17.467,20.48 -33.039,23.639 2.468,-4.924 5.861,-12.895 7.156,-21.582 l 0.484,-3.254 -28.514,0 c -8.41,0 -15.252,-6.842 -15.252,-15.252 l 0,-83.82 c 0,-8.409 6.842,-15.251 15.252,-15.251 l 83.819,0 c 8.409,0 15.251,6.842 15.251,15.251 l 0,83.82 z"
         id="path692"
         inkscape:connector-curvature="0" /></g></g><g
     style="display:none"
     display="none"
     id="g694"
     transform="translate(-147.642,-96.155)"><g
       style="display:inline"
       display="inline"
       id="g696"><path
         d="m 236.818,135.073 c -1.765,-1.766 -4.72,-1.674 -6.598,0.204 l -19.763,19.763 -19.763,-19.763 c -1.878,-1.878 -4.833,-1.97 -6.598,-0.204 -1.766,1.765 -1.674,4.719 0.204,6.598 l 19.764,19.762 -19.764,19.763 c -1.878,1.879 -1.97,4.832 -0.204,6.598 1.765,1.766 4.72,1.674 6.598,-0.205 l 19.763,-19.762 19.763,19.762 c 1.878,1.879 4.833,1.971 6.598,0.205 1.766,-1.766 1.674,-4.719 -0.204,-6.598 l -19.764,-19.763 19.764,-19.762 c 1.878,-1.879 1.97,-4.834 0.204,-6.598 z"
         id="path698"
         inkscape:connector-curvature="0" /><path
         d="m 252.383,97.99 -83.819,0 c -11.536,0 -20.922,9.385 -20.922,20.921 l 0,83.82 c 0,11.537 9.386,20.922 20.922,20.922 l 21.824,0 c -2.484,11.445 -8.483,21.127 -8.55,21.232 l -2.972,4.748 5.585,-0.416 c 19.971,-1.49 33.636,-14.453 41.789,-25.564 l 26.143,0 c 11.535,0 20.921,-9.385 20.921,-20.922 l 0,-83.82 c 0,-11.536 -9.386,-20.921 -20.921,-20.921 z m 15.251,104.74 c 0,8.41 -6.842,15.252 -15.251,15.252 l -29.061,0 -0.847,1.197 c -6.594,9.318 -17.467,20.48 -33.039,23.639 2.468,-4.924 5.861,-12.895 7.156,-21.582 l 0.484,-3.254 -28.514,0 c -8.41,0 -15.252,-6.842 -15.252,-15.252 l 0,-83.82 c 0,-8.409 6.842,-15.251 15.252,-15.251 l 83.819,0 c 8.409,0 15.251,6.842 15.251,15.251 l 0,83.82 z"
         id="path700"
         inkscape:connector-curvature="0" /></g></g><g
     style="display:none"
     display="none"
     id="g702"
     transform="translate(-147.642,-96.155)"><g
       style="display:inline"
       display="inline"
       id="g704"><path
         d="m 240.544,135.1 -41.417,42.236 -18.971,-21.093 c -1.728,-1.919 -4.501,-2.072 -6.195,-0.346 -1.694,1.729 -1.667,4.683 0.061,6.602 l 21.47,23.871 c 0.783,0.869 1.781,1.355 2.796,1.49 0.078,0.018 0.157,0.025 0.235,0.037 0.039,0.002 0.078,0.01 0.117,0.01 1.291,0.164 2.67,-0.273 3.721,-1.346 l 44.063,-44.933 c 1.803,-1.838 1.947,-4.789 0.324,-6.592 -1.624,-1.802 -4.401,-1.774 -6.204,0.064 z"
         id="path706"
         inkscape:connector-curvature="0" /><path
         d="m 252.383,97.99 -83.819,0 c -11.536,0 -20.922,9.385 -20.922,20.921 l 0,83.82 c 0,11.537 9.386,20.922 20.922,20.922 l 21.824,0 c -2.484,11.445 -8.483,21.127 -8.55,21.232 l -2.972,4.748 5.585,-0.416 c 19.971,-1.49 33.636,-14.453 41.789,-25.564 l 26.143,0 c 11.535,0 20.921,-9.385 20.921,-20.922 l 0,-83.82 c 0,-11.536 -9.386,-20.921 -20.921,-20.921 z m 15.251,104.74 c 0,8.41 -6.842,15.252 -15.251,15.252 l -29.061,0 -0.847,1.197 c -6.594,9.318 -17.467,20.48 -33.039,23.639 2.468,-4.924 5.861,-12.895 7.156,-21.582 l 0.484,-3.254 -28.514,0 c -8.41,0 -15.252,-6.842 -15.252,-15.252 l 0,-83.82 c 0,-8.409 6.842,-15.251 15.252,-15.251 l 83.819,0 c 8.409,0 15.251,6.842 15.251,15.251 l 0,83.82 z"
         id="path708"
         inkscape:connector-curvature="0" /></g></g><g
     style="display:none"
     display="none"
     id="g710"
     transform="translate(-147.642,-96.155)"><g
       style="display:inline"
       display="inline"
       id="g712"><path
         d="m 209.806,178.533 c -4.079,0 -6.832,2.115 -6.832,5.25 0,3.135 2.753,5.328 6.832,5.328 4.079,0 6.934,-2.193 6.934,-5.328 0,-3.135 -2.855,-5.25 -6.934,-5.25 z"
         id="path714"
         inkscape:connector-curvature="0" /><path
         d="m 210.112,132.531 c -9.893,0 -16.826,5.722 -17.438,14.577 -0.102,0.939 0.612,1.41 1.733,1.41 l 7.955,0 c 1.121,0 1.835,-0.471 1.835,-1.41 0.407,-3.84 2.448,-6.113 6.323,-6.113 4.283,0 6.016,2.586 6.016,5.563 0,9.17 -12.747,9.952 -12.747,24.765 l 0,1.959 c 0,0.862 0.714,1.333 1.835,1.333 l 8.261,0 c 1.121,0 1.835,-0.471 1.835,-1.333 l 0,-2.037 c 0,-11.05 12.543,-12.461 12.543,-25.234 0,-8.073 -7.342,-13.48 -18.151,-13.48 z"
         id="path716"
         inkscape:connector-curvature="0" /><path
         d="m 252.383,97.99 -83.819,0 c -11.536,0 -20.922,9.385 -20.922,20.921 l 0,83.82 c 0,11.537 9.386,20.922 20.922,20.922 l 21.824,0 c -2.484,11.445 -8.483,21.127 -8.55,21.232 l -2.972,4.748 5.585,-0.416 c 19.971,-1.49 33.636,-14.453 41.789,-25.564 l 26.143,0 c 11.535,0 20.921,-9.385 20.921,-20.922 l 0,-83.82 c 0,-11.536 -9.386,-20.921 -20.921,-20.921 z m 15.251,104.74 c 0,8.41 -6.842,15.252 -15.251,15.252 l -29.061,0 -0.847,1.197 c -6.594,9.318 -17.467,20.48 -33.039,23.639 2.468,-4.924 5.861,-12.895 7.156,-21.582 l 0.484,-3.254 -28.514,0 c -8.41,0 -15.252,-6.842 -15.252,-15.252 l 0,-83.82 c 0,-8.409 6.842,-15.251 15.252,-15.251 l 83.819,0 c 8.409,0 15.251,6.842 15.251,15.251 l 0,83.82 z"
         id="path718"
         inkscape:connector-curvature="0" /></g></g><g
     style="display:none"
     display="none"
     id="g720"
     transform="translate(-147.642,-96.155)"><g
       style="display:inline"
       display="inline"
       id="g722"><path
         d="m 206.548,174.385 7.742,0 c 1.133,0 1.699,-0.482 1.699,-1.447 l 0,-40.151 c 0,-0.885 -0.566,-1.367 -1.699,-1.367 l -7.742,0 c -1.134,0 -1.699,0.482 -1.699,1.367 l 0,40.151 c 0,0.965 0.565,1.447 1.699,1.447 z"
         id="path724"
         inkscape:connector-curvature="0" /><path
         d="m 210.419,177.846 c -3.777,0 -6.327,2.172 -6.327,5.391 0,3.219 2.55,5.471 6.327,5.471 3.776,0 6.42,-2.252 6.42,-5.471 0,-3.219 -2.644,-5.391 -6.42,-5.391 z"
         id="path726"
         inkscape:connector-curvature="0" /><path
         d="m 252.383,97.99 -83.819,0 c -11.536,0 -20.922,9.385 -20.922,20.921 l 0,83.82 c 0,11.537 9.386,20.922 20.922,20.922 l 21.824,0 c -2.484,11.445 -8.483,21.127 -8.55,21.232 l -2.972,4.748 5.585,-0.416 c 19.971,-1.49 33.636,-14.453 41.789,-25.564 l 26.143,0 c 11.535,0 20.921,-9.385 20.921,-20.922 l 0,-83.82 c 0,-11.536 -9.386,-20.921 -20.921,-20.921 z m 15.251,104.74 c 0,8.41 -6.842,15.252 -15.251,15.252 l -29.061,0 -0.847,1.197 c -6.594,9.318 -17.467,20.48 -33.039,23.639 2.468,-4.924 5.861,-12.895 7.156,-21.582 l 0.484,-3.254 -28.514,0 c -8.41,0 -15.252,-6.842 -15.252,-15.252 l 0,-83.82 c 0,-8.409 6.842,-15.251 15.252,-15.251 l 83.819,0 c 8.409,0 15.251,6.842 15.251,15.251 l 0,83.82 z"
         id="path728"
         inkscape:connector-curvature="0" /></g></g><g
     style="display:none"
     display="none"
     id="g730"
     transform="translate(-147.642,-96.155)"><g
       style="display:inline"
       display="inline"
       id="g732"><path
         d="m 178.863,250.05 2.975,-4.749 c 0.068,-0.11 6.36,-10.259 8.727,-22.063 l -42.924,0 0,-125.665 125.664,0 0,125.664 -46.46,0 c -8.213,11.481 -22.034,24.877 -42.395,26.396 l -5.587,0.417 z m -25.552,-32.483 43.83,0 -0.421,3.204 c -1.187,9.028 -4.729,17.375 -7.282,22.464 15.914,-3.22 26.941,-14.787 33.602,-24.442 l 0.845,-1.226 43.751,0 0,-114.324 -114.325,0 0,114.324 z"
         id="path734"
         inkscape:connector-curvature="0" /></g></g><g
     style="display:none"
     display="none"
     id="g736"
     transform="translate(-147.642,-96.155)"><g
       style="display:inline"
       display="inline"
       id="g738"><circle
         cx="181.666"
         cy="160.405"
         r="8.9659996"
         id="circle740" /><circle
         cx="210.451"
         cy="160.405"
         r="8.9659996"
         id="circle742" /><circle
         cx="239.237"
         cy="160.405"
         r="8.9659996"
         id="circle744" /><path
         d="m 147.641,97.573 0,125.664 42.924,0 c -2.366,11.805 -8.658,21.953 -8.727,22.063 l -2.975,4.749 5.587,-0.416 c 20.36,-1.52 34.182,-14.915 42.395,-26.396 l 46.46,0 0,-125.664 -125.664,0 z m 119.994,119.994 -43.751,0 -0.845,1.226 c -6.66,9.655 -17.688,21.223 -33.602,24.442 2.553,-5.089 6.096,-13.436 7.282,-22.464 l 0.421,-3.204 -43.83,0 0,-114.324 114.324,0 0,114.324 z"
         id="path746"
         inkscape:connector-curvature="0" /></g></g><g
     style="display:none"
     display="none"
     id="g748"
     transform="translate(-147.642,-96.155)"><g
       style="display:inline"
       display="inline"
       id="g750"><path
         d="m 177.984,146.496 64.939,0 c 2.656,0 4.81,-2.024 4.81,-4.521 0,-2.496 -2.153,-4.52 -4.81,-4.52 l -64.939,0 c -2.656,0 -4.81,2.023 -4.81,4.52 0.001,2.497 2.154,4.521 4.81,4.521 z"
         id="path752"
         inkscape:connector-curvature="0" /><path
         d="m 177.984,163.496 64.939,0 c 2.656,0 4.81,-2.024 4.81,-4.521 0,-2.496 -2.153,-4.52 -4.81,-4.52 l -64.939,0 c -2.656,0 -4.81,2.023 -4.81,4.52 0.001,2.497 2.154,4.521 4.81,4.521 z"
         id="path754"
         inkscape:connector-curvature="0" /><path
         d="m 177.984,180.496 64.939,0 c 2.656,0 4.81,-2.024 4.81,-4.521 0,-2.496 -2.153,-4.52 -4.81,-4.52 l -64.939,0 c -2.656,0 -4.81,2.023 -4.81,4.52 0.001,2.497 2.154,4.521 4.81,4.521 z"
         id="path756"
         inkscape:connector-curvature="0" /><path
         d="m 147.641,97.573 0,125.664 42.924,0 c -2.366,11.805 -8.658,21.953 -8.727,22.063 l -2.975,4.749 5.587,-0.416 c 20.36,-1.52 34.182,-14.915 42.395,-26.396 l 46.46,0 0,-125.664 -125.664,0 z m 119.994,119.994 -43.751,0 -0.845,1.226 c -6.66,9.655 -17.688,21.223 -33.602,24.442 2.553,-5.089 6.096,-13.436 7.282,-22.464 l 0.421,-3.204 -43.83,0 0,-114.324 114.324,0 0,114.324 z"
         id="path758"
         inkscape:connector-curvature="0" /></g></g><g
     style="display:none"
     display="none"
     id="g760"
     transform="translate(-147.642,-96.155)"><g
       style="display:inline"
       display="inline"
       id="g762"><path
         d="m 184.097,187.377 c 1.765,1.766 4.72,1.674 6.598,-0.205 l 19.763,-19.763 19.763,19.763 c 1.878,1.879 4.833,1.971 6.598,0.205 1.766,-1.766 1.674,-4.72 -0.204,-6.598 l -19.764,-19.764 19.764,-19.762 c 1.878,-1.879 1.97,-4.833 0.204,-6.598 -1.765,-1.766 -4.72,-1.674 -6.598,0.204 l -19.763,19.763 -19.763,-19.763 c -1.878,-1.878 -4.833,-1.97 -6.598,-0.204 -1.766,1.765 -1.674,4.719 0.204,6.598 l 19.764,19.762 -19.764,19.764 c -1.878,1.878 -1.97,4.832 -0.204,6.598 z"
         id="path764"
         inkscape:connector-curvature="0" /><path
         d="m 147.641,97.573 0,125.664 42.924,0 c -2.366,11.805 -8.658,21.953 -8.727,22.063 l -2.975,4.749 5.587,-0.416 c 20.36,-1.52 34.182,-14.915 42.395,-26.396 l 46.46,0 0,-125.664 -125.664,0 z m 119.994,119.994 -43.751,0 -0.845,1.226 c -6.66,9.655 -17.688,21.223 -33.602,24.442 2.553,-5.089 6.096,-13.436 7.282,-22.464 l 0.421,-3.204 -43.83,0 0,-114.324 114.324,0 0,114.324 z"
         id="path766"
         inkscape:connector-curvature="0" /></g></g><g
     style="display:none"
     display="none"
     id="g768"
     transform="translate(-147.642,-96.155)"><g
       style="display:inline"
       display="inline"
       id="g770"><path
         d="m 195.49,185.953 c 0.783,0.869 1.781,1.355 2.796,1.49 0.078,0.017 0.157,0.024 0.235,0.037 0.039,0.002 0.078,0.009 0.117,0.01 1.291,0.163 2.67,-0.274 3.721,-1.346 l 44.063,-44.934 c 1.803,-1.838 1.947,-4.789 0.324,-6.592 -1.623,-1.802 -4.4,-1.773 -6.203,0.064 l -41.417,42.235 -18.971,-21.093 c -1.728,-1.919 -4.501,-2.072 -6.195,-0.346 -1.694,1.729 -1.667,4.683 0.061,6.602 l 21.469,23.873 z"
         id="path772"
         inkscape:connector-curvature="0" /><path
         d="m 147.641,97.573 0,125.664 42.924,0 c -2.366,11.805 -8.658,21.953 -8.727,22.063 l -2.975,4.749 5.587,-0.416 c 20.36,-1.52 34.182,-14.915 42.395,-26.396 l 46.46,0 0,-125.664 -125.664,0 z m 119.994,119.994 -43.751,0 -0.845,1.226 c -6.66,9.655 -17.688,21.223 -33.602,24.442 2.553,-5.089 6.096,-13.436 7.282,-22.464 l 0.421,-3.204 -43.83,0 0,-114.324 114.324,0 0,114.324 z"
         id="path774"
         inkscape:connector-curvature="0" /></g></g><g
     style="display:none"
     display="none"
     id="g776"
     transform="translate(-147.642,-96.155)"><g
       style="display:inline"
       display="inline"
       id="g778"><path
         d="m 209.805,178.116 c -4.079,0 -6.832,2.116 -6.832,5.251 0,3.135 2.753,5.328 6.832,5.328 4.079,0 6.934,-2.193 6.934,-5.328 0,-3.135 -2.855,-5.251 -6.934,-5.251 z"
         id="path780"
         inkscape:connector-curvature="0" /><path
         d="m 194.406,148.102 7.955,0 c 1.121,0 1.835,-0.471 1.835,-1.41 0.407,-3.84 2.448,-6.113 6.323,-6.113 4.283,0 6.016,2.586 6.016,5.563 0,9.17 -12.747,9.952 -12.747,24.765 l 0,1.959 c 0,0.862 0.714,1.333 1.835,1.333 l 8.261,0 c 1.121,0 1.835,-0.471 1.835,-1.333 l 0,-2.037 c 0,-11.05 12.543,-12.461 12.543,-25.234 0,-8.072 -7.342,-13.479 -18.15,-13.479 -9.893,0 -16.826,5.722 -17.438,14.577 -0.103,0.938 0.611,1.409 1.732,1.409 z"
         id="path782"
         inkscape:connector-curvature="0" /><path
         d="m 147.641,97.573 0,125.664 42.924,0 c -2.366,11.805 -8.658,21.953 -8.727,22.063 l -2.975,4.749 5.587,-0.416 c 20.36,-1.52 34.182,-14.915 42.395,-26.396 l 46.46,0 0,-125.664 -125.664,0 z m 119.994,119.994 -43.751,0 -0.845,1.226 c -6.66,9.655 -17.688,21.223 -33.602,24.442 2.553,-5.089 6.096,-13.436 7.282,-22.464 l 0.421,-3.204 -43.83,0 0,-114.324 114.324,0 0,114.324 z"
         id="path784"
         inkscape:connector-curvature="0" /></g></g><g
     style="display:none"
     display="none"
     id="g786"
     transform="translate(-147.642,-96.155)"><g
       style="display:inline"
       display="inline"
       id="g788"><path
         d="m 206.547,173.969 7.742,0 c 1.133,0 1.699,-0.482 1.699,-1.447 l 0,-40.152 c 0,-0.885 -0.566,-1.367 -1.699,-1.367 l -7.742,0 c -1.134,0 -1.699,0.482 -1.699,1.367 l 0,40.151 c 0,0.965 0.565,1.448 1.699,1.448 z"
         id="path790"
         inkscape:connector-curvature="0" /><path
         d="m 210.418,188.291 c 3.776,0 6.42,-2.252 6.42,-5.471 0,-3.219 -2.644,-5.392 -6.42,-5.392 -3.777,0 -6.327,2.173 -6.327,5.392 0,3.219 2.55,5.471 6.327,5.471 z"
         id="path792"
         inkscape:connector-curvature="0" /><path
         d="m 147.641,97.573 0,125.664 42.924,0 c -2.366,11.805 -8.658,21.953 -8.727,22.063 l -2.975,4.749 5.587,-0.416 c 20.36,-1.52 34.182,-14.915 42.395,-26.396 l 46.46,0 0,-125.664 -125.664,0 z m 119.994,119.994 -43.751,0 -0.845,1.226 c -6.66,9.655 -17.688,21.223 -33.602,24.442 2.553,-5.089 6.096,-13.436 7.282,-22.464 l 0.421,-3.204 -43.83,0 0,-114.324 114.324,0 0,114.324 z"
         id="path794"
         inkscape:connector-curvature="0" /></g></g></svg>