<?xml version="1.0" encoding="UTF-8" standalone="no"?>
<svg
   xmlns:dc="http://purl.org/dc/elements/1.1/"
   xmlns:cc="http://creativecommons.org/ns#"
   xmlns:rdf="http://www.w3.org/1999/02/22-rdf-syntax-ns#"
   xmlns:svg="http://www.w3.org/2000/svg"
   xmlns="http://www.w3.org/2000/svg"
   xmlns:sodipodi="http://sodipodi.sourceforge.net/DTD/sodipodi-0.dtd"
   xmlns:inkscape="http://www.inkscape.org/namespaces/inkscape"
   version="1.1"
   x="0px"
   y="0px"
   viewBox="0 0 88.006378 74.998802"
   enable-background="new 0 0 100 100"
   xml:space="preserve"
   id="svg2"
   inkscape:version="0.91 r13725"
   sodipodi:docname="noun_24240_cc.svg"
   width="88.006378"
   height="74.998802"><metadata
     id="metadata54"><rdf:RDF><cc:Work
         rdf:about=""><dc:format>image/svg+xml</dc:format><dc:type
           rdf:resource="http://purl.org/dc/dcmitype/StillImage" /><dc:title></dc:title></cc:Work></rdf:RDF></metadata><defs
     id="defs52" /><sodipodi:namedview
     pagecolor="#ffffff"
     bordercolor="#666666"
     borderopacity="1"
     objecttolerance="10"
     gridtolerance="10"
     guidetolerance="10"
     inkscape:pageopacity="0"
     inkscape:pageshadow="2"
     inkscape:window-width="1920"
     inkscape:window-height="1056"
     id="namedview50"
     showgrid="false"
     fit-margin-top="0"
     fit-margin-left="0"
     fit-margin-right="0"
     fit-margin-bottom="0"
     inkscape:zoom="1.888"
     inkscape:cx="44.002625"
     inkscape:cy="24.999"
     inkscape:window-x="0"
     inkscape:window-y="24"
     inkscape:window-maximized="1"
     inkscape:current-layer="svg2" /><g
     display="none"
     id="g4"
     style="display:none"
     transform="translate(-5.9973749,-12.500199)"><g
       display="inline"
       id="g6"
       style="display:inline"><g
         id="g8"><path
           stroke-miterlimit="10"
           d="M 49.858,25.458"
           id="path10"
           inkscape:connector-curvature="0"
           style="fill:#000000;stroke:#231f20;stroke-width:1.73010004;stroke-miterlimit:10" /></g><g
         id="g12"><path
           stroke-miterlimit="10"
           d="M 49.858,25.458"
           id="path14"
           inkscape:connector-curvature="0"
           style="fill:#000000;stroke:#231f20;stroke-width:1.73010004;stroke-miterlimit:10" /></g><g
         id="g16"><path
           d="m 31.665,43.35 c -0.453,0.041 -0.787,0.441 -0.747,0.893 l 3.547,39.397 c 0.038,0.427 0.397,0.748 0.819,0.748 0.023,0 0.049,-0.001 0.074,-0.003 0.454,-0.041 0.787,-0.44 0.746,-0.895 L 32.558,44.095 C 32.517,43.644 32.113,43.308 31.665,43.35 Z"
           id="path18"
           inkscape:connector-curvature="0"
           style="fill:#000000" /><path
           d="m 42.015,44.991 c -0.455,0.019 -0.807,0.402 -0.788,0.856 l 1.644,39.5 c 0.019,0.442 0.383,0.789 0.822,0.789 0.012,0 0.024,0 0.035,-10e-4 0.455,-0.02 0.807,-0.402 0.789,-0.857 L 42.873,45.78 c -0.02,-0.455 -0.409,-0.818 -0.858,-0.789 z"
           id="path20"
           inkscape:connector-curvature="0"
           style="fill:#000000" /><path
           d="m 59.726,84.385 c 0.026,0.002 0.052,0.003 0.076,0.003 0.421,0 0.78,-0.321 0.818,-0.748 l 3.557,-39.397 c 0.04,-0.452 -0.294,-0.853 -0.746,-0.893 -0.468,-0.042 -0.854,0.294 -0.894,0.745 L 58.98,83.49 c -0.04,0.453 0.294,0.854 0.746,0.895 z"
           id="path22"
           inkscape:connector-curvature="0"
           style="fill:#000000" /><path
           d="m 51.366,86.135 c 0.012,10e-4 0.023,10e-4 0.036,10e-4 0.438,0 0.803,-0.348 0.82,-0.789 l 1.644,-39.5 c 0.019,-0.455 -0.334,-0.837 -0.787,-0.856 -0.455,-0.007 -0.839,0.334 -0.856,0.789 l -1.645,39.498 c -0.018,0.454 0.334,0.837 0.788,0.857 z"
           id="path24"
           inkscape:connector-curvature="0"
           style="fill:#000000" /><path
           d="m 29.347,33.708 c 0.555,0.001 1.055,-0.237 1.403,-0.615 0.313,-0.339 0.504,-0.793 0.504,-1.291 0,-1.051 -0.854,-1.905 -1.907,-1.905 -1.051,0 -1.904,0.854 -1.904,1.905 0,1.053 0.853,1.906 1.904,1.906 z"
           id="path26"
           inkscape:connector-curvature="0"
           style="fill:#000000" /><circle
           cx="41.176998"
           cy="33.875"
           r="1.906"
           id="circle28"
           style="fill:#000000" /><path
           d="M 66.492,16.187 C 66.207,13.883 65.228,12.147 64.19,10.93 62.052,8.423 59.084,7.223 57.489,6.578 56.123,6.027 53.582,5 50.742,5 48.81,5 46.465,5.487 44.317,7.23 35.69,4.923 26.879,4.058 25.009,8.67 l -2.342,5.791 c -0.269,0.66 -0.195,1.411 0.199,2.005 l 0.953,1.445 -1.827,14.712 -0.641,1.25 -0.106,0 c 0,0.057 0.015,0.114 0.019,0.171 l -0.73,1.426 c -0.195,0.38 -0.274,0.809 -0.226,1.233 l 5.48,48.327 C 25.935,91.577 36.806,95 47.543,95 58.284,95 69.158,91.577 69.306,85.031 L 74.62,38.07 75.746,37.688 c 0.595,-0.201 1.073,-0.652 1.309,-1.233 l 0.865,-2.128 c 0.016,-0.037 0.029,-0.073 0.042,-0.111 l 1.441,-3.564 C 81.263,26.03 74.308,20.523 66.492,16.187 Z M 43.314,14.214 c 1.625,-4.018 4.052,-5.97 7.422,-5.97 2.21,0 4.288,0.841 5.531,1.342 1.338,0.541 3.827,1.546 5.449,3.449 1.452,1.704 1.935,3.764 1.452,6.251 0.002,10e-4 0.004,0.002 0.006,0.003 -0.161,0.828 -0.428,1.702 -0.802,2.627 -0.111,0.275 -0.189,0.275 -0.347,0.275 l -10e-4,0 c -0.003,0 -0.004,0 -0.006,0 -0.245,0 -0.591,-0.09 -1.033,-0.269 -0.63,-0.253 -0.886,-0.461 -0.989,-0.59 -0.052,-0.063 -0.099,-0.123 0.003,-0.375 0.244,-0.606 0.427,-1.166 0.558,-1.689 0.025,-0.102 0.046,-0.201 0.066,-0.301 0.029,-0.134 0.054,-0.265 0.075,-0.394 0.021,-0.135 0.039,-0.268 0.054,-0.398 0.337,-3.159 -1.751,-4.729 -5.441,-6.221 -2.078,-0.839 -3.401,-1.182 -4.57,-1.182 -1.643,0 -2.768,0.759 -3.596,1.781 0.002,10e-4 0.003,10e-4 0.004,0.002 -0.637,0.786 -1.103,1.725 -1.462,2.615 -0.111,0.277 -0.19,0.277 -0.348,0.277 0,0 0,0 -10e-4,0 -0.002,0 -0.003,0 -0.005,0 -0.245,0 -0.593,-0.09 -1.032,-0.269 -1.183,-0.477 -1.079,-0.735 -0.987,-0.964 z m -0.912,-3.025 c -0.387,0.658 -0.752,1.388 -1.087,2.215 -0.376,0.93 -0.592,2.659 2.182,3.781 0.719,0.29 1.304,0.425 1.843,0.425 1.094,0 1.93,-0.579 2.353,-1.628 0.613,-1.516 1.195,-2.278 1.742,-2.664 1.485,0.518 3.025,1.09 4.633,1.739 1.605,0.649 3.106,1.306 4.531,1.964 0.177,0.798 -0.053,1.775 -0.599,3.126 -0.372,0.921 -0.261,1.822 0.315,2.539 0.396,0.493 0.99,0.888 1.866,1.242 0.719,0.291 1.304,0.425 1.844,0.425 1.093,0 1.929,-0.579 2.353,-1.628 0.329,-0.813 0.561,-1.593 0.748,-2.358 6.56,3.755 10.002,7.092 10.244,8.47 C 71.523,29.687 62.442,28.439 50.59,23.648 38.758,18.868 31.368,13.467 29.176,10.181 30.385,9.354 35.157,9.356 42.402,11.189 Z M 30.351,27.18 c 2.553,0 4.623,2.069 4.623,4.622 0,2.553 -2.07,4.622 -4.623,4.622 -2.552,0 -4.623,-2.068 -4.623,-4.622 0,-2.552 2.07,-4.622 4.623,-4.622 z m 34.646,57.473 c -0.011,0.081 -0.015,0.162 -0.015,0.243 0,2.301 -6.956,5.778 -17.439,5.778 -10.479,0 -17.431,-3.478 -17.431,-5.778 0,-0.081 -0.006,-0.163 -0.014,-0.244 L 24.793,37.886 c 4.643,2.303 13.475,3.757 23.614,3.757 8.758,0 16.813,-1.136 21.795,-2.986 L 64.997,84.653 Z M 37.556,33.875 c 0,-2.553 2.071,-4.622 4.624,-4.622 2.552,0 4.623,2.069 4.623,4.622 0,2.554 -2.071,4.622 -4.623,4.622 -2.553,10e-4 -4.624,-2.068 -4.624,-4.622 z m 36.355,-1.183 c -0.014,0.035 -0.026,0.068 -0.038,0.104 l -0.422,1.037 C 70.276,34.75 61.457,33.944 48.539,28.727 37.875,24.423 30.578,19.507 27.858,16.178 l -0.755,-1.143 1.236,-3.072 c 3.549,4.418 12.507,9.614 21.604,13.29 8.046,3.253 16.845,5.577 22.66,5.577 0.761,0 1.465,-0.044 2.114,-0.128 l -0.806,1.99 z"
           id="path30"
           inkscape:connector-curvature="0"
           style="fill:#000000" /></g></g></g><g
     display="none"
     id="g32"
     style="display:none"
     transform="translate(-5.9973749,-12.500199)"><g
       display="inline"
       id="g34"
       style="display:inline"><path
         d="M 92.021,28.25 C 91.543,27.822 91.048,27.447 90.537,27.121 92.308,23.725 93.328,18.474 88.69,14.569 84.85,11.336 79.012,12.785 75.145,14.875 70.712,11.669 64.699,14.619 61.8,16.918 38.69,35.263 33.881,39.081 20.45,47.44 10.632,53.549 10.338,59.479 10.807,62.068 3.522,67.296 4.609,73.004 6.048,76.09 c 0.573,1.238 2.542,4.338 7.793,4.338 1.598,0 3.507,-0.296 5.766,-1.009 1.144,5.119 4.987,7.905 11.067,7.905 6.833,0 15.543,-3.59 21.141,-7.146 C 61.518,74.012 84.892,58.24 92.346,44.957 94.618,40.905 97.107,32.826 92.021,28.25 Z M 22.145,50.162 c 13.586,-8.455 18.421,-12.292 41.651,-30.73 0.053,-0.043 4.795,-3.738 8.377,-2.52 -2.379,1.997 -4.714,3.932 -7.021,5.83 -0.68,0.41 -1.265,0.903 -1.774,1.458 -4.353,3.557 -8.565,6.924 -12.631,10.099 -2.008,0.504 -4.158,1.748 -6.083,4.684 -3.55,2.698 -6.968,5.226 -10.246,7.582 -2.152,0.299 -3.952,1.296 -5.459,3.047 -0.423,0.49 -0.765,1.004 -1.051,1.528 -5.088,3.491 -9.786,6.506 -14.017,8.979 0.173,-2.148 1.622,-5.831 8.254,-9.957 z m -2.6,12.653 c -0.377,-0.088 -0.695,-0.318 -0.896,-0.646 -0.197,-0.322 -0.256,-0.703 -0.166,-1.073 0.155,-0.648 0.732,-1.102 1.405,-1.102 0.112,0 0.223,0.013 0.334,0.04 3.093,0.729 5.23,0.745 6.275,0.055 0.895,-0.589 1.167,-1.811 1.509,-3.765 0.31,-1.767 0.696,-3.962 2.166,-5.667 1.525,-1.771 3.321,-2.596 5.653,-2.596 0.986,0 1.911,0.144 2.729,0.271 1.805,0.28 2.959,0.346 3.772,-0.203 1.371,-0.926 1.7,-2.327 2.116,-4.1 0.298,-1.283 0.636,-2.737 1.484,-4.058 3.063,-4.764 6.642,-4.48 9.319,-4.339 0.529,0.028 0.996,0.049 1.418,0.049 1.472,0 2.606,-0.254 3.708,-1.523 0.39,-0.444 0.752,-1.483 1.233,-2.942 0.865,-2.625 2.052,-6.219 5.144,-7.523 1.08,-0.455 2.529,-0.978 4.156,-0.978 1.235,0 2.434,0.292 3.666,0.89 0.343,0.167 0.602,0.458 0.726,0.819 0.122,0.36 0.099,0.747 -0.07,1.09 -0.34,0.69 -1.227,1.001 -1.931,0.659 -1.433,-0.697 -3.641,-0.606 -5.431,0.149 -1.888,0.799 -2.755,3.443 -3.523,5.781 -0.53,1.61 -0.99,3 -1.792,3.919 -1.944,2.231 -4.21,2.517 -5.965,2.517 -0.526,0 -1.03,-0.026 -1.507,-0.052 -0.537,-0.029 -1.03,-0.054 -1.491,-0.054 -2.01,0 -3.586,0.513 -5.231,3.068 -0.579,0.903 -0.835,2.001 -1.108,3.164 -0.464,1.997 -0.991,4.263 -3.307,5.826 -0.935,0.631 -1.978,0.925 -3.284,0.925 -0.882,0 -1.733,-0.132 -2.559,-0.261 -0.852,-0.131 -1.614,-0.24 -2.315,-0.24 -1.437,0 -2.461,0.475 -3.423,1.592 -0.958,1.111 -1.229,2.66 -1.518,4.308 -0.372,2.133 -0.757,4.342 -2.761,5.657 -0.496,0.322 -1.044,0.562 -1.673,0.724 -1.694,0.437 -3.919,0.316 -6.862,-0.381 z M 89.548,43.389 c -7.097,12.646 -29.954,28.049 -39.453,34.084 -5.208,3.307 -13.232,6.646 -19.421,6.646 0,0 0,0 -0.001,0 l -10e-4,0 c -5.299,0 -7.921,-2.689 -8.21,-7.483 -0.268,-4.453 5.607,-8.134 8.717,-10.13 18.135,-11.655 23.158,-15.816 34.163,-24.932 2.601,-2.154 5.546,-4.594 9.086,-7.482 4.362,-3.564 7.908,-5.294 10.838,-5.294 0.539,0 1.049,0.08 1.547,0.198 l 10e-4,-10e-4 c 0.026,0.006 0.051,0.017 0.077,0.024 0.408,0.102 0.806,0.246 1.188,0.429 0.175,0.081 0.349,0.168 0.52,0.267 0.124,0.072 0.247,0.145 0.368,0.227 0.309,0.205 0.614,0.428 0.91,0.694 3.588,3.226 1.353,9.752 -0.329,12.753 z"
         id="path36"
         inkscape:connector-curvature="0"
         style="fill:#000000" /></g></g><g
     id="g38"
     style="fill:#ffffff"
     transform="translate(-5.9973749,-12.500199)"><path
       d="M 93.753,22.806 C 93.112,21.804 90.33,20.931 87.048,20.242 84.147,11.797 60.582,12.317 53.311,12.65 c 0.784,5.506 9.025,5.749 14.619,6.289 -3.11,0.405 -6.093,1.074 -9.012,1.738 -2.567,0.583 -5.223,1.188 -7.901,1.588 -0.488,0.073 -1.594,0.078 -2.021,0.002 -2.341,-0.41 -4.67,-0.94 -6.924,-1.454 C 38.89,20.087 35.64,19.351 32.241,18.923 37.83,18.394 45.912,18.1 46.69,12.65 39.419,12.317 15.855,11.797 12.953,20.242 c -3.282,0.689 -6.064,1.561 -6.704,2.563 -0.311,0.484 -0.385,1.42 0.075,2.273 0.301,0.558 1.062,1.47 2.85,1.612 2.828,14.077 3.974,19.37 13.22,20.693 0.828,0.118 3.985,0.455 7.511,0.455 3.441,0 6.152,-0.309 8.123,-0.917 -0.086,0.529 -0.173,1.047 -0.255,1.597 -3.707,0.921 -6.51,5.018 -6.51,9.917 0,4.727 2.612,8.695 6.123,9.798 -3.985,1.413 -7.515,3.64 -10.023,6.171 -4.84,4.887 -3.18,5.811 -9.197,9.296 0,0 7.038,3.799 16.395,3.799 10.036,0 11.877,-6.793 15.441,-6.793 3.563,0 5.405,6.793 15.441,6.793 9.356,0 16.395,-3.799 16.395,-3.799 -6.018,-3.485 -4.357,-4.409 -9.197,-9.296 -2.509,-2.531 -6.038,-4.758 -10.023,-6.171 3.511,-1.103 6.123,-5.071 6.123,-9.798 0,-4.686 -2.449,-8.571 -5.914,-9.741 -0.081,-0.536 -0.166,-1.074 -0.254,-1.613 1.911,0.498 4.413,0.757 7.526,0.757 3.524,0 6.683,-0.337 7.511,-0.455 9.244,-1.324 10.39,-6.616 13.22,-20.693 1.788,-0.143 2.549,-1.054 2.85,-1.612 0.457,-0.853 0.382,-1.789 0.073,-2.272 z m -55.74,19.775 c -1.204,1.043 -3.992,1.593 -8.062,1.593 -2.787,0 -5.26,-0.264 -5.908,-0.357 -6.621,-0.947 -7.521,-4.101 -9.913,-16.002 -0.349,-1.948 -0.061,-2.361 0.171,-2.694 0.054,-0.077 0.105,-0.151 0.15,-0.229 0.707,-1.222 7.917,-2.385 11.863,-2.395 l 0.107,-0.509 0,0.509 c 5.107,0 11.073,0.924 18.223,2.826 l -0.601,3.676 c -2.072,2.667 -3.742,6.907 -5.035,12.743 -0.197,0.174 -0.387,0.332 -0.565,0.479 -0.15,0.123 -0.294,0.241 -0.43,0.36 z m 26.669,15.856 c 0,3.842 -2.542,6.983 -5.151,5.799 -0.248,-0.114 -0.509,-0.173 -0.765,-0.183 -0.771,-0.029 -1.522,0.387 -1.89,1.119 -0.172,0.344 -0.355,0.668 -0.544,0.984 -1.759,3.027 -4.059,4.941 -6.044,4.941 -2.027,0 -4.353,-1.984 -6.114,-5.123 -0.188,-0.33 -0.373,-0.668 -0.546,-1.027 -0.246,-0.51 -0.694,-0.895 -1.236,-1.06 C 42.198,63.829 42,63.8 41.801,63.8 c -0.356,0 -0.712,0.095 -1.025,0.279 -0.468,0.273 -0.946,0.413 -1.423,0.413 -2.188,0 -4.034,-2.773 -4.034,-6.056 0,-3.283 1.847,-6.055 3.989,-6.055 0.019,10e-4 0.107,0.009 0.125,0.01 0.805,0.062 1.575,-0.388 1.939,-1.115 0.102,-0.202 0.169,-0.425 0.199,-0.652 0.101,-0.743 0.206,-1.462 0.316,-2.171 0.031,-0.207 0.064,-0.41 0.097,-0.614 0.084,-0.518 0.17,-1.025 0.257,-1.524 0.035,-0.197 0.07,-0.396 0.104,-0.591 0.12,-0.649 0.241,-1.286 0.368,-1.9 0.002,-0.009 0.004,-0.019 0.005,-0.029 0.002,-0.007 0.004,-0.016 0.006,-0.024 0,0 0,-10e-4 0.001,-10e-4 1.495,-7.213 3.539,-11.95 5.833,-13.545 0.05,-0.035 0.101,-0.07 0.151,-0.103 0.129,-0.082 0.257,-0.154 0.387,-0.215 0.095,-0.047 0.19,-0.081 0.286,-0.115 0.098,-0.035 0.193,-0.075 0.292,-0.1 0.203,-0.049 0.407,-0.081 0.613,-0.081 0.105,0 0.215,0.008 0.323,0.021 0.024,0.003 0.05,0.006 0.075,0.011 0.229,0.033 0.462,0.095 0.703,0.193 0.007,0.003 0.015,0.006 0.022,0.009 2.266,0.947 4.991,5.083 7.085,17.498 0,0.004 0.001,0.009 0.002,0.013 0.079,0.471 0.157,0.955 0.234,1.451 0.009,0.048 0.016,0.094 0.023,0.144 0.083,0.537 0.166,1.087 0.247,1.653 0.011,0.092 0.026,0.184 0.048,0.268 0.211,0.844 0.936,1.459 1.803,1.531 2.113,0.169 3.83,2.877 3.83,6.034 z m 21.56,-30.633 c -2.395,11.912 -3.293,15.066 -9.916,16.013 -0.646,0.093 -3.116,0.357 -5.906,0.357 -4.07,0 -6.858,-0.55 -8.062,-1.593 -0.137,-0.118 -0.28,-0.236 -0.431,-0.36 C 61.826,42.138 61.721,42.051 61.614,41.96 60.46,36.602 58.813,31.638 56.263,28.605 l -0.537,-3.281 c 7.152,-1.901 13.118,-2.826 18.225,-2.826 l 0,-0.509 0.106,0.509 c 3.946,0.009 11.155,1.172 11.863,2.395 0.045,0.078 0.096,0.152 0.149,0.229 0.232,0.331 0.521,0.744 0.173,2.682 z"
       id="path40"
       style="fill:#ffffff"
       inkscape:connector-curvature="0" /></g><g
     display="none"
     id="g42"
     style="display:none"
     transform="translate(-5.9973749,-12.500199)"><path
       display="inline"
       d="m 86.195,48.245 c -0.377,-5.384 -1.639,-9.456 -3.856,-12.452 -2.604,-3.511 -8.3,-4.484 -13.716,-4.319 l -0.091,-1.519 c 3.046,-1.268 5.206,-4.276 5.206,-7.751 0,-4.634 -3.771,-8.404 -8.405,-8.404 -1.471,0 -2.893,0.384 -4.141,1.093 -1.436,-3.421 -4.796,-5.757 -8.71,-5.757 -2.711,0 -5.218,1.154 -6.97,3.068 C 43.804,9.371 40.692,7.5 37.217,7.5 c -3.914,0 -7.339,2.321 -8.854,5.765 -1.116,-0.482 -2.32,-0.731 -3.567,-0.731 -4.983,0 -9.038,4.054 -9.038,9.037 0,3.541 2.002,6.589 4.96,8.071 L 17.51,82.958 c -3.597,0.778 -3.76,2.695 -3.76,3.709 0,2.688 12.745,5.834 30.866,5.834 18.119,0 30.863,-3.146 30.863,-5.834 0,-1.014 -0.164,-2.931 -3.76,-3.709 l -0.831,-13.83 c 5.55,-0.512 10.104,-3.118 12.24,-7.043 1.784,-3.275 3.442,-8.458 3.067,-13.84 z M 65.413,27.215 c -0.037,0.001 -0.074,0.002 -0.11,0.005 l -23.979,0 c -0.935,0 -1.694,0.759 -1.694,1.693 l 0,8.917 c 0,1.116 -0.908,2.024 -2.024,2.024 -1.116,0 -2.024,-0.908 -2.024,-2.024 l 0,-8.917 c 0,-0.935 -0.759,-1.693 -1.693,-1.693 l -0.739,0 c -0.935,0 -1.694,0.759 -1.694,1.693 l 0,18.878 c 0,1.434 -1.166,2.6 -2.6,2.6 -1.433,0 -2.6,-1.167 -2.6,-2.6 l 0,-18.89 c 0,-0.914 -0.727,-1.664 -1.641,-1.692 -2.005,-0.064 -3.712,-1.154 -4.663,-2.752 -0.121,-0.2 -0.231,-0.404 -0.327,-0.618 -0.041,-0.092 -0.074,-0.186 -0.109,-0.28 -0.102,-0.268 -0.189,-0.542 -0.249,-0.829 -0.01,-0.044 -0.014,-0.089 -0.022,-0.134 -0.062,-0.333 -0.1,-0.674 -0.1,-1.026 0,-3.115 2.535,-5.649 5.65,-5.649 1.283,0 2.493,0.422 3.502,1.223 0.467,0.371 1.099,0.469 1.655,0.255 0.56,-0.213 0.964,-0.705 1.065,-1.293 0.525,-3.023 3.131,-5.217 6.199,-5.217 3.137,0 5.817,2.345 6.235,5.455 0.104,0.779 0.733,1.385 1.516,1.459 0.782,0.079 1.515,-0.399 1.767,-1.145 0.833,-2.473 3.143,-4.133 5.748,-4.133 3.157,0 5.753,2.369 6.038,5.511 0.062,0.68 0.527,1.257 1.178,1.462 0.65,0.208 1.363,-0.002 1.804,-0.522 0.958,-1.136 2.354,-1.786 3.831,-1.786 2.768,0 5.019,2.25 5.019,5.017 0,0.302 -0.037,0.597 -0.09,0.884 -0.011,0.063 -0.021,0.125 -0.034,0.187 -0.06,0.261 -0.138,0.516 -0.235,0.76 -0.033,0.082 -0.072,0.16 -0.108,0.241 -0.084,0.178 -0.176,0.35 -0.279,0.516 -0.081,0.132 -0.169,0.258 -0.261,0.382 -0.092,0.121 -0.186,0.238 -0.287,0.351 -0.095,0.105 -0.189,0.207 -0.292,0.305 -0.146,0.136 -0.297,0.266 -0.458,0.384 l 0,0 c -0.817,0.604 -1.812,0.982 -2.895,0.998 z m 10.888,31.149 c -1.389,1.439 -2.77,2.634 -5.88,2.985 L 69.09,39.253 c 3.024,-0.032 5.449,0.746 6.469,1.724 2.045,1.971 2.612,4.004 2.877,7.807 0.264,3.808 -0.629,8.02 -2.135,9.58 z"
       id="path44"
       inkscape:connector-curvature="0"
       style="display:inline;fill:#000000" /></g></svg>